?xml version="1.0" encoding="utf-8"?>
<!-- Generator: Adobe Illustrator 16.0.0, SVG Export Plug-In . SVG Version: 6.00 Build 0)  -->
<!DOCTYPE svg PUBLIC "-//W3C//DTD SVG 1.1//EN" "http://www.w3.org/Graphics/SVG/1.1/DTD/svg11.dtd">
<svg version="1.1" id="Layer_1" xmlns="http://www.w3.org/2000/svg" xmlns:xlink="http://www.w3.org/1999/xlink" x="0px" y="0px"
	 width="300px" height="149px" viewBox="0 0 3000 1485" enable-background="new 0 0 3000 1485" xml:space="preserve">
<g>
	<path fill="#18164B" d="M557.842,490.133c-0.004,0.183,0.021,0.347,0.057,0.504c-0.027-0.16-0.048-0.324-0.048-0.501
		C557.847,490.135,557.845,490.134,557.842,490.133z"/>
	<path fill="#18164B" d="M463.786,342.189c0.005,0.09,0.021,0.173,0.037,0.256c-0.011-0.085-0.029-0.166-0.033-0.255
		C463.789,342.19,463.788,342.189,463.786,342.189z"/>
	<path fill="#18164B" d="M735.831,770.145c-0.001,0.166,0.019,0.318,0.052,0.463c-0.022-0.148-0.044-0.299-0.044-0.461
		C735.836,770.146,735.833,770.146,735.831,770.145z"/>
	<path fill="#18164B" d="M693.873,704.53c0-0.003,0-0.005-0.001-0.007C693.872,704.525,693.873,704.527,693.873,704.53z"/>
	<path fill="#18164B" d="M537.072,306.771c-0.241-0.648-0.736-1.122-1.156-1.648c0.373,0.544,0.747,1.089,1.12,1.633
		C537.05,306.759,537.06,306.766,537.072,306.771z"/>
	<path fill="#18164B" d="M673.086,520.758c-0.243-0.606-0.702-1.065-1.104-1.562c0.356,0.516,0.715,1.031,1.071,1.548
		C673.066,520.75,673.074,520.755,673.086,520.758z"/>
	<path fill="#18164B" d="M543.848,468.125c0,0.013,0.002,0.022,0.002,0.036C543.85,468.149,543.849,468.138,543.848,468.125
		C543.849,468.125,543.849,468.125,543.848,468.125z"/>
	<path fill="#18164B" d="M551.628,480.356c0.255,0.927,1.063,1.473,1.564,2.229c-0.503-0.735-1.005-1.471-1.508-2.206
		C551.664,480.373,551.648,480.363,551.628,480.356z"/>
	<path fill="#18164B" d="M571.83,512.145c-0.001,0.168,0.021,0.322,0.054,0.469c-0.023-0.149-0.045-0.302-0.046-0.467
		C571.835,512.146,571.833,512.146,571.83,512.145z"/>
	<path fill="#18164B" d="M523.086,284.758c-0.243-0.607-0.701-1.064-1.103-1.56c0.356,0.516,0.714,1.031,1.07,1.547
		C523.066,284.75,523.074,284.755,523.086,284.758z"/>
	<path fill="#18164B" d="M679.873,682.53c0-0.003-0.001-0.006-0.001-0.009C679.872,682.524,679.872,682.527,679.873,682.53z"/>
	<path fill="#18164B" d="M529.873,446.529c0-0.003,0-0.004-0.001-0.006C529.872,446.525,529.872,446.527,529.873,446.529z"/>
	<path fill="#18164B" d="M725.705,754.268c0.001,0.01,0.003,0.018,0.005,0.025C725.709,754.285,725.706,754.277,725.705,754.268
		C725.705,754.27,725.705,754.27,725.705,754.268z"/>
	<path fill="#18164B" d="M537.637,458.34c0.233,0.942,1.053,1.487,1.564,2.24c-0.5-0.739-1.001-1.479-1.501-2.216
		C537.678,458.358,537.66,458.347,537.637,458.34z"/>
	<path fill="#18164B" d="M530.893,296.982c-0.003-0.053-0.016-0.101-0.022-0.152c0.005,0.052,0.018,0.098,0.02,0.151
		C530.891,296.981,530.892,296.982,530.893,296.982z"/>
	<path fill="#18164B" d="M575.705,518.268c0.001,0.009,0.003,0.017,0.005,0.024C575.709,518.285,575.706,518.277,575.705,518.268
		C575.705,518.269,575.705,518.269,575.705,518.268z"/>
	<path fill="#18164B" d="M652.917,488.957L652.917,488.957L652.917,488.957z"/>
	<path fill="#18164B" d="M659.086,498.758c-0.243-0.605-0.701-1.063-1.102-1.559c0.355,0.515,0.713,1.029,1.069,1.545
		C659.066,498.75,659.075,498.755,659.086,498.758z"/>
	<path fill="#18164B" d="M753.088,646.718c-0.473-0.708-0.96-1.406-1.466-2.091C752.11,645.325,752.599,646.021,753.088,646.718
		L753.088,646.718z"/>
	<path fill="#18164B" d="M603.088,410.718c-0.473-0.709-0.96-1.406-1.466-2.091C602.11,409.325,602.599,410.021,603.088,410.718
		L603.088,410.718z"/>
	<path fill="#18164B" d="M477.78,364.197c0.003,0.043,0.014,0.08,0.019,0.121c-0.003-0.041-0.014-0.078-0.016-0.12
		C477.782,364.198,477.781,364.198,477.78,364.197z"/>
	<path fill="#18164B" d="M505.765,408.213c0.001,0.005,0.002,0.01,0.003,0.015C505.767,408.223,505.766,408.218,505.765,408.213
		L505.765,408.213z"/>
	<path fill="#18164B" d="M715.063,586.798c-0.287-0.896-1.082-1.448-1.554-2.218c0.5,0.732,1,1.465,1.501,2.196
		C715.029,586.784,715.044,586.792,715.063,586.798z"/>
	<path fill="#18164B" d="M491.765,386.214c0.001,0.01,0.004,0.019,0.005,0.029C491.769,386.233,491.766,386.224,491.765,386.214
		L491.765,386.214z"/>
	<path fill="#18164B" d="M565.063,350.798c-0.287-0.896-1.082-1.448-1.554-2.218c0.5,0.732,1,1.465,1.501,2.197
		C565.029,350.784,565.044,350.792,565.063,350.798z"/>
	<path fill="#18164B" d="M680.893,532.982c-0.003-0.053-0.016-0.101-0.022-0.151c0.005,0.052,0.018,0.098,0.02,0.15
		C680.891,532.981,680.892,532.982,680.893,532.982z"/>
	<path fill="#18164B" d="M593.052,394.811c-0.271-0.918-1.083-1.468-1.574-2.235c0.506,0.736,1.011,1.475,1.516,2.212
		C593.014,394.795,593.03,394.804,593.052,394.811z"/>
	<path fill="#18164B" d="M693.848,704.125c0,0.014,0.002,0.026,0.002,0.04C693.85,704.152,693.849,704.139,693.848,704.125
		C693.849,704.125,693.849,704.125,693.848,704.125z"/>
	<path fill="#18164B" d="M529.848,446.125c0,0.014,0.002,0.024,0.002,0.039C529.85,446.152,529.849,446.138,529.848,446.125
		C529.849,446.125,529.849,446.125,529.848,446.125z"/>
	<polygon fill="#18164B" points="751.427,794.498 751.429,794.5 751.429,794.5 	"/>
	<path fill="#18164B" d="M551.064,328.781c-0.311-0.882-1.096-1.438-1.555-2.217c0.505,0.733,1.011,1.467,1.517,2.201
		C551.04,328.771,551.051,328.777,551.064,328.781z"/>
	<path fill="#18164B" d="M687.072,542.77c-0.241-0.647-0.736-1.122-1.156-1.647c0.373,0.544,0.747,1.089,1.12,1.633
		C687.05,542.759,687.06,542.766,687.072,542.77z"/>
	<path fill="#18164B" d="M749.81,792.164c0.003,0.154,0.025,0.297,0.058,0.434c-0.023-0.139-0.046-0.279-0.05-0.432
		C749.814,792.164,749.813,792.164,749.81,792.164z"/>
	<path fill="#18164B" d="M757.04,652.824c-0.252-0.934-1.07-1.481-1.573-2.244c0.503,0.74,1.005,1.479,1.508,2.219
		C756.999,652.805,757.017,652.816,757.04,652.824z"/>
	<path fill="#18164B" d="M701.064,564.782c-0.311-0.883-1.096-1.438-1.555-2.218c0.505,0.733,1.011,1.468,1.517,2.201
		C701.04,564.77,701.051,564.777,701.064,564.782z"/>
	<path fill="#18164B" d="M607.04,416.824c-0.252-0.934-1.07-1.482-1.573-2.244c0.503,0.74,1.005,1.479,1.508,2.219
		C606.999,416.805,607.017,416.816,607.04,416.824z"/>
	<path fill="#18164B" d="M499.025,246.847c-0.223-0.96-1.049-1.508-1.588-2.252c0.506,0.742,1.01,1.483,1.514,2.224
		C498.978,246.827,498.999,246.839,499.025,246.847z"/>
	<path fill="#18164B" d="M635.036,460.836c-0.238-0.945-1.059-1.493-1.583-2.243c0.504,0.739,1.009,1.479,1.513,2.216
		C634.992,460.817,635.011,460.829,635.036,460.836z"/>
	<path fill="#18164B" d="M666.898,510.976c-0.003-0.036-0.013-0.067-0.018-0.103c0.003,0.035,0.012,0.065,0.014,0.102
		C666.896,510.975,666.896,510.976,666.898,510.976z"/>
	<path fill="#18164B" d="M722.959,598.968c0.033,0.174,0.078,0.34,0.09,0.527C723.034,599.31,723.001,599.136,722.959,598.968z"/>
	<path fill="#18164B" d="M627.78,600.197c0.003,0.043,0.014,0.08,0.019,0.121c-0.003-0.041-0.014-0.078-0.016-0.12
		C627.782,600.198,627.781,600.198,627.78,600.197z"/>
	<path fill="#18164B" d="M645.097,476.747c-0.237-0.556-0.649-0.989-1.026-1.447c0.333,0.479,0.667,0.957,1,1.435
		C645.08,476.738,645.087,476.743,645.097,476.747z"/>
	<path fill="#18164B" d="M694.974,554.995c0.027,0.15,0.068,0.294,0.079,0.456C695.037,555.292,695.01,555.14,694.974,554.995z"/>
	<path fill="#18164B" d="M509.086,262.758c-0.243-0.606-0.702-1.064-1.103-1.561c0.356,0.516,0.714,1.032,1.071,1.547
		C509.066,262.75,509.075,262.755,509.086,262.758z"/>
	<path fill="#18164B" d="M649.025,482.847c-0.223-0.96-1.049-1.508-1.588-2.252c0.506,0.742,1.01,1.483,1.514,2.225
		C648.978,482.828,648.999,482.839,649.025,482.847z"/>
	<path fill="#18164B" d="M708.97,576.982c0.028,0.156,0.071,0.303,0.082,0.469C709.036,577.288,709.007,577.132,708.97,576.982z"/>
	<path fill="#18164B" d="M641.766,622.214c0.001,0.005,0.002,0.01,0.003,0.016C641.768,622.224,641.767,622.219,641.766,622.214
		L641.766,622.214z"/>
	<path fill="#18164B" d="M655.766,644.214c0.001,0.01,0.003,0.019,0.005,0.029C655.77,644.233,655.767,644.224,655.766,644.214
		L655.766,644.214z"/>
	<path fill="#18164B" d="M495.097,240.747c-0.236-0.554-0.648-0.987-1.024-1.444c0.333,0.478,0.666,0.955,0.998,1.432
		C495.08,240.737,495.087,240.742,495.097,240.747z"/>
	<path fill="#18164B" d="M435.812,298.164c0.003,0.151,0.022,0.292,0.054,0.424c-0.022-0.137-0.043-0.273-0.046-0.422
		C435.814,298.166,435.813,298.165,435.812,298.164z"/>
	<path fill="#18164B" d="M701.627,716.356c0.255,0.926,1.063,1.472,1.565,2.229c-0.503-0.735-1.005-1.471-1.508-2.206
		C701.664,716.373,701.648,716.363,701.627,716.356z"/>
	<path fill="#18164B" d="M679.848,682.125c0,0.014,0.002,0.024,0.002,0.039C679.85,682.152,679.849,682.139,679.848,682.125
		C679.849,682.126,679.849,682.125,679.848,682.125z"/>
	<path fill="#18164B" d="M687.637,694.34c0.233,0.942,1.053,1.487,1.564,2.24c-0.5-0.739-1.001-1.479-1.501-2.216
		C687.678,694.358,687.66,694.347,687.637,694.34z"/>
	<path fill="#18164B" d="M788.917,702.957L788.917,702.957L788.917,702.957z"/>
	<path fill="#18164B" d="M785.035,696.835c-0.239-0.944-1.058-1.493-1.582-2.242c0.504,0.738,1.008,1.477,1.512,2.214
		C784.991,696.816,785.01,696.828,785.035,696.835z"/>
	<path fill="#18164B" d="M795.097,712.747c-0.239-0.56-0.651-0.996-1.032-1.456c0.336,0.479,0.671,0.961,1.005,1.44
		C795.078,712.736,795.087,712.741,795.097,712.747z"/>
	<path fill="#18164B" d="M707.842,726.133c-0.004,0.183,0.02,0.347,0.055,0.503c-0.026-0.16-0.046-0.324-0.046-0.5
		C707.847,726.135,707.845,726.134,707.842,726.133z"/>
	<path fill="#18164B" d="M485.036,224.836c-0.239-0.945-1.059-1.493-1.583-2.243c0.504,0.739,1.009,1.478,1.513,2.216
		C484.992,224.817,485.011,224.829,485.036,224.836z"/>
	<path fill="#18164B" d="M544.974,318.994c0.027,0.151,0.068,0.294,0.079,0.456C545.037,319.292,545.01,319.14,544.974,318.994z"/>
	<path fill="#18164B" d="M516.898,274.977c-0.004-0.036-0.013-0.068-0.018-0.104c0.003,0.035,0.012,0.066,0.014,0.103
		C516.896,274.976,516.896,274.977,516.898,274.977z"/>
	<path fill="#18164B" d="M449.808,320.169c0.003,0.145,0.021,0.279,0.05,0.408c-0.02-0.132-0.04-0.263-0.044-0.406
		C449.812,320.17,449.811,320.169,449.808,320.169z"/>
	<path fill="#18164B" d="M572.959,362.969c0.033,0.173,0.078,0.339,0.09,0.526C573.034,363.31,573.001,363.137,572.959,362.969z"/>
	<path fill="#18164B" d="M805.917,716.437c-3.707-0.007-8.981,2.672-10.815-3.598c-1.097-0.358-1.596-1.133-1.551-2.285l0,0
		l-0.128-0.244c-1.403-0.796-2.163-1.987-2.226-3.605c-1.586-0.715-2.128-2.101-2.396-3.661c-1.087-0.414-1.502-1.271-1.489-2.41
		c0.001,0,0.002,0.001,0.003,0.002c-0.001-0.001-0.001-0.001-0.002-0.002l-0.02-0.032c-1.549-0.749-2.134-2.095-2.334-3.68
		c-1.086-0.381-1.54-1.194-1.511-2.336l0,0l-0.076-0.143c-1.479-0.767-2.157-2.029-2.289-3.629c-1.04-0.346-1.535-1.07-1.471-2.188
		l-0.6-0.342l0.031-0.689c-1.222-0.583-1.775-1.586-1.834-2.898c-1.575-0.729-2.128-2.104-2.382-3.673
		c-1.09-0.404-1.509-1.258-1.502-2.395l-0.025-0.043c-1.559-0.737-2.141-2.082-2.341-3.665c-1.087-0.382-1.542-1.194-1.502-2.34
		c0.504,0.743,1.007,1.484,1.511,2.228c0.025,0.007,0.043,0.02,0.068,0.026c-0.238-0.948-1.065-1.495-1.578-2.254l-0.08-0.152
		c-1.452-0.781-2.153-2.027-2.283-3.625c-1.037-0.342-1.545-1.056-1.473-2.176l-0.604-0.367l0.029-0.706
		c-1.213-0.573-1.765-1.564-1.823-2.869c-1.591-0.72-2.132-2.104-2.379-3.675c-1.09-0.4-1.512-1.249-1.502-2.385
		c0.001,0,0.001,0.001,0.002,0.001l-0.001-0.001l-0.033-0.058c-1.547-0.738-2.147-2.068-2.34-3.654
		c-1.08-0.384-1.537-1.193-1.503-2.333l-0.087-0.16c-1.461-0.771-2.155-2.02-2.286-3.616c-1.037-0.342-1.546-1.056-1.472-2.176
		l-0.604-0.37l0.03-0.708c-1.209-0.578-1.756-1.572-1.813-2.874c-1.588-0.722-2.138-2.1-2.38-3.672
		c-1.086-0.404-1.507-1.251-1.492-2.387l0,0l-0.043-0.074c-1.537-0.739-2.145-2.062-2.332-3.646
		c-1.081-0.379-1.556-1.173-1.512-2.321c0.505,0.736,1.01,1.475,1.516,2.212c0.021,0.007,0.038,0.017,0.059,0.022
		c-0.271-0.918-1.083-1.468-1.573-2.236l-0.092-0.173c-1.434-0.789-2.154-2.018-2.271-3.616c-1.036-0.334-1.545-1.041-1.479-2.156
		l-0.607-0.368l0.019-0.712c-1.209-0.578-1.756-1.572-1.813-2.874c-1.588-0.722-2.138-2.102-2.38-3.673
		c-1.087-0.407-1.505-1.254-1.48-2.393l0,0l-0.045-0.081c-1.515-0.756-2.146-2.061-2.324-3.646
		c-1.083-0.374-1.554-1.168-1.517-2.313c0.508,0.737,1.014,1.473,1.521,2.208c0.021,0.007,0.034,0.016,0.054,0.021
		c-0.292-0.903-1.092-1.456-1.573-2.229l-0.098-0.181c-1.44-0.78-2.147-2.012-2.26-3.61c-1.084-0.296-1.592-1-1.474-2.147
		c-0.621-0.154-0.825-0.533-0.611-1.137c-1.206-0.561-1.76-1.533-1.8-2.832c-1.574-0.731-2.138-2.102-2.376-3.675
		c-1.087-0.398-1.521-1.236-1.497-2.379l0,0l-0.045-0.081c-1.515-0.756-2.146-2.061-2.324-3.646
		c-1.083-0.375-1.556-1.168-1.507-2.316l0,0l-0.098-0.19c-1.403-0.804-2.166-1.997-2.257-3.606c-1.071-0.299-1.581-0.994-1.46-2.133
		c-0.629-0.172-0.84-0.567-0.633-1.186c-1.203-0.545-1.751-1.509-1.79-2.798h-0.001c-1.586-0.726-2.143-2.099-2.369-3.679
		c-1.089-0.394-1.52-1.229-1.504-2.367l0,0l-0.053-0.092c-1.529-0.745-2.139-2.061-2.313-3.646c-1.084-0.369-1.556-1.16-1.514-2.305
		l-0.104-0.201c-1.411-0.792-2.169-1.986-2.259-3.594c-1.072-0.299-1.581-0.994-1.461-2.133c-0.63-0.173-0.84-0.567-0.632-1.187
		c-1.198-0.551-1.735-1.52-1.771-2.805l-0.008-0.012c-1.577-0.727-2.149-2.086-2.375-3.665c-1.086-0.396-1.517-1.23-1.49-2.369l0,0
		l-0.062-0.108c-1.499-0.759-2.154-2.039-2.312-3.633c-1.077-0.373-1.547-1.159-1.505-2.299l-0.118-0.225
		c-1.405-0.797-2.174-1.985-2.255-3.603c-1.585-0.717-2.114-2.109-2.388-3.669c-1.084-0.419-1.485-1.288-1.489-2.417l-0.008-0.014
		c-1.577-0.726-2.15-2.085-2.375-3.664c-1.087-0.397-1.515-1.234-1.48-2.375c0,0,0,0,0.001,0l-0.063-0.118
		c-1.479-0.771-2.148-2.043-2.302-3.634c-1.073-0.368-1.566-1.137-1.515-2.284l0,0l-0.122-0.236
		c-1.393-0.803-2.171-1.985-2.242-3.604c-1.583-0.713-2.123-2.101-2.397-3.658c-1.083-0.423-1.481-1.292-1.476-2.421l-0.018-0.028
		c-1.561-0.732-2.146-2.079-2.367-3.656c-1.087-0.392-1.534-1.214-1.499-2.361l0,0l-0.063-0.118
		c-1.479-0.771-2.149-2.043-2.302-3.634c-1.075-0.368-1.566-1.139-1.515-2.286c0.003,0.005,0.007,0.01,0.011,0.016
		c-0.003-0.005-0.007-0.009-0.01-0.015l-0.121-0.237c-1.396-0.807-2.16-1.998-2.222-3.616c-1.586-0.716-2.128-2.101-2.396-3.661
		c-1.087-0.414-1.501-1.271-1.489-2.409l-0.02-0.033c-1.548-0.744-2.142-2.084-2.35-3.667c-1.083-0.387-1.538-1.202-1.51-2.345l0,0
		l-0.068-0.128c-1.489-0.764-2.148-2.039-2.291-3.633c-1.075-0.363-1.566-1.134-1.521-2.275l-0.128-0.243
		c-1.402-0.796-2.163-1.988-2.226-3.605c-1.585-0.717-2.131-2.101-2.392-3.665c-1.084-0.417-1.487-1.28-1.479-2.41l-0.025-0.043
		c-1.559-0.737-2.141-2.082-2.341-3.666c-1.086-0.38-1.54-1.194-1.511-2.335l0,0l-0.077-0.143c-1.479-0.767-2.156-2.029-2.288-3.629
		c-1.04-0.346-1.535-1.071-1.471-2.188l-0.6-0.342l0.031-0.688c-1.222-0.584-1.775-1.587-1.834-2.9
		c-1.574-0.728-2.128-2.104-2.382-3.672c-1.09-0.404-1.509-1.258-1.502-2.395l-0.025-0.043c-1.559-0.737-2.141-2.082-2.341-3.665
		c-1.087-0.382-1.542-1.194-1.502-2.34c0.504,0.743,1.007,1.484,1.511,2.228c0.025,0.007,0.043,0.02,0.068,0.026
		c-0.238-0.948-1.065-1.495-1.578-2.254l-0.08-0.151c-1.452-0.782-2.153-2.028-2.283-3.626c-1.037-0.343-1.546-1.056-1.473-2.176
		l-0.604-0.367l0.029-0.706c-1.213-0.573-1.765-1.564-1.823-2.869c-1.591-0.72-2.132-2.104-2.379-3.675
		c-1.09-0.4-1.512-1.249-1.502-2.385l0,0l-0.032-0.058c-1.547-0.738-2.147-2.068-2.34-3.654c-1.08-0.384-1.537-1.193-1.503-2.333
		l-0.087-0.16c-1.461-0.771-2.154-2.02-2.286-3.616c-1.037-0.343-1.546-1.056-1.472-2.176l-0.604-0.37l0.03-0.708
		c-1.209-0.578-1.756-1.572-1.812-2.874c-1.588-0.721-2.139-2.1-2.381-3.672c-1.086-0.404-1.507-1.251-1.492-2.386
		c0.001,0,0.001,0.001,0.002,0.001l-0.001-0.001l-0.043-0.074c-1.538-0.739-2.146-2.062-2.333-3.646
		c-1.081-0.379-1.556-1.173-1.512-2.321l-0.091-0.173c-1.434-0.789-2.153-2.019-2.271-3.617c-1.037-0.333-1.545-1.041-1.479-2.156
		l-0.608-0.368l0.02-0.712c-1.209-0.578-1.756-1.572-1.812-2.874c-1.589-0.722-2.139-2.1-2.381-3.674
		c-1.088-0.406-1.506-1.254-1.48-2.393l-0.045-0.079c-1.515-0.757-2.146-2.062-2.324-3.647c-1.083-0.374-1.554-1.168-1.517-2.313
		c0.508,0.735,1.014,1.472,1.521,2.208c0.021,0.006,0.035,0.015,0.054,0.021c-0.292-0.903-1.092-1.456-1.573-2.228l-0.098-0.182
		c-1.44-0.779-2.147-2.014-2.26-3.61c-1.084-0.296-1.592-0.999-1.474-2.147c-0.621-0.154-0.825-0.533-0.611-1.137
		c-1.206-0.561-1.76-1.533-1.8-2.832c-1.574-0.731-2.137-2.102-2.376-3.674c-1.088-0.4-1.521-1.238-1.497-2.381l-0.045-0.079
		c-1.514-0.757-2.146-2.062-2.324-3.647c-1.083-0.375-1.556-1.168-1.507-2.316l0,0l-0.098-0.19
		c-1.403-0.803-2.167-1.998-2.257-3.607c-1.071-0.298-1.579-0.993-1.459-2.132c-0.63-0.172-0.841-0.567-0.633-1.186
		c-1.204-0.544-1.752-1.508-1.791-2.797h-0.001c-1.586-0.726-2.143-2.099-2.369-3.679c-1.089-0.394-1.52-1.229-1.504-2.367l0,0
		l-0.057-0.092c-1.529-0.745-2.139-2.061-2.313-3.646c-1.084-0.369-1.556-1.16-1.514-2.304l-0.104-0.202
		c-1.411-0.792-2.17-1.987-2.259-3.594c-1.072-0.298-1.58-0.993-1.459-2.132c-0.632-0.172-0.842-0.567-0.634-1.187
		c-1.198-0.55-1.735-1.519-1.771-2.804l-0.008-0.013c-1.577-0.726-2.15-2.085-2.375-3.664c-1.086-0.396-1.517-1.231-1.49-2.369l0,0
		l-0.062-0.109c-1.499-0.758-2.154-2.039-2.312-3.632c-1.077-0.373-1.547-1.16-1.505-2.299l-0.118-0.225
		c-1.405-0.797-2.174-1.985-2.255-3.602c-1.585-0.717-2.114-2.11-2.387-3.669c-1.084-0.419-1.486-1.288-1.49-2.417l-0.008-0.014
		c-1.577-0.726-2.15-2.085-2.375-3.664c-1.086-0.398-1.515-1.234-1.48-2.374l0,0l-0.063-0.118c-1.479-0.771-2.148-2.043-2.302-3.634
		c-1.073-0.368-1.566-1.137-1.515-2.284l0,0l-0.122-0.237c-1.393-0.802-2.171-1.985-2.242-3.603
		c-1.583-0.713-2.123-2.101-2.397-3.658c-1.083-0.423-1.481-1.292-1.476-2.421l-0.018-0.028c-1.562-0.733-2.146-2.081-2.368-3.657
		c-1.086-0.391-1.533-1.213-1.498-2.359l0,0l-0.063-0.118c-1.479-0.771-2.149-2.043-2.302-3.634
		c-1.074-0.368-1.566-1.139-1.515-2.286c0.011,0.016,0.021,0.031,0.032,0.046c-0.009-0.016-0.022-0.03-0.031-0.046l-0.121-0.235
		c-1.395-0.808-2.16-1.999-2.222-3.618c-1.586-0.715-2.128-2.1-2.397-3.661c-1.085-0.414-1.5-1.271-1.487-2.408l0,0l-0.021-0.034
		c-1.548-0.744-2.142-2.084-2.35-3.667c-1.083-0.387-1.537-1.202-1.51-2.345l0,0l-0.068-0.128c-1.489-0.763-2.148-2.039-2.291-3.633
		c-1.075-0.363-1.566-1.133-1.521-2.275l-0.128-0.242c-1.402-0.797-2.163-1.989-2.226-3.607c-1.586-0.716-2.131-2.1-2.393-3.665
		c-1.084-0.417-1.486-1.279-1.479-2.41l-0.025-0.043c-1.559-0.737-2.141-2.082-2.341-3.666c-1.086-0.38-1.54-1.194-1.511-2.335l0,0
		l-0.077-0.142c-1.478-0.767-2.155-2.03-2.288-3.629c-1.04-0.346-1.535-1.071-1.471-2.188l-0.6-0.342l0.031-0.689
		c-1.222-0.583-1.774-1.586-1.834-2.899c-1.574-0.728-2.128-2.105-2.382-3.672c-1.09-0.405-1.509-1.258-1.502-2.395l-0.025-0.044
		c-2.565-2.861-6-2.402-9.299-2.402c-83.616-0.005-167.232-0.018-250.849,0.019c-7.495,0.003-7.598,0.149-7.619,7.73
		c-0.057,20.987-0.049,41.975-0.005,62.962c0.018,8.459,0.091,8.547,8.898,8.55c67.293,0.025,134.586-0.01,201.878,0.082
		c3.523,0.005,7.307-1.276,10.608,1.151c0.001,0,0.003,0.001,0.004,0.002l0.347,0.269c1.785,0.443,2.198,1.85,2.413,3.395
		c2.103,1.508,3.304,3.588,3.846,6.086c1.589,0.71,2.125,2.104,2.407,3.662c1.085,0.424,1.479,1.296,1.477,2.424l0,0l0.013,0.021
		c1.587,0.72,2.145,2.088,2.365,3.667c1.088,0.392,1.521,1.226,1.502,2.364l0.056,0.099c1.55,0.749,2.149,2.088,2.318,3.694
		c2.102,1.503,3.327,3.566,3.862,6.07c1.589,0.712,2.127,2.104,2.406,3.665c1.082,0.43,1.467,1.308,1.465,2.432l0.013,0.021
		c1.578,0.723,2.15,2.081,2.369,3.662c1.089,0.392,1.518,1.228,1.5,2.362l0.06,0.104c1.546,0.751,2.156,2.081,2.313,3.692
		c2.092,1.51,3.31,3.577,3.859,6.072c1.602,0.708,2.131,2.106,2.397,3.672c1.086,0.417,1.489,1.283,1.489,2.415
		c-0.002,0-0.003-0.001-0.004-0.003c0,0.002,0.002,0.002,0.003,0.003l0.014,0.021c1.578,0.723,2.151,2.081,2.369,3.662
		c1.089,0.392,1.518,1.228,1.5,2.362l0.06,0.104c1.551,0.752,2.146,2.09,2.296,3.702c2.107,1.502,3.29,3.595,3.86,6.078
		c1.602,0.705,2.141,2.096,2.403,3.665c1.087,0.417,1.481,1.286,1.482,2.412l0,0l0.021,0.031c1.582,0.723,2.141,2.085,2.354,3.664
		c1.09,0.385,1.538,1.204,1.508,2.348l0,0l0.067,0.123c1.514,0.765,2.157,2.068,2.304,3.681c2.106,1.504,3.295,3.592,3.855,6.081
		c1.593,0.716,2.127,2.108,2.388,3.674c1.09,0.412,1.499,1.271,1.486,2.403l0.026,0.046c1.56,0.733,2.141,2.079,2.348,3.658
		c1.09,0.379,1.537,1.196,1.51,2.338l0,0l0.077,0.138c1.518,0.759,2.15,2.064,2.292,3.674c2.11,1.5,3.309,3.583,3.865,6.076
		c1.599,0.708,2.135,2.101,2.396,3.667c1.09,0.412,1.499,1.271,1.486,2.403l0.026,0.046c1.564,0.736,2.128,2.092,2.332,3.671
		c1.09,0.376,1.539,1.192,1.511,2.331c-0.507-0.74-1.013-1.481-1.519-2.222c-0.024-0.009-0.044-0.02-0.069-0.026
		c0.229,0.955,1.055,1.501,1.587,2.248l0.083,0.15c1.503,0.764,2.16,2.05,2.291,3.662c2.097,1.512,3.301,3.591,3.861,6.08
		c1.588,0.72,2.133,2.104,2.391,3.67c1.09,0.405,1.504,1.26,1.493,2.394l0.032,0.056c1.561,0.732,2.137,2.078,2.339,3.657
		c1.09,0.376,1.538,1.192,1.511,2.331c-0.507-0.74-1.013-1.481-1.519-2.222c-0.024-0.008-0.044-0.02-0.069-0.026
		c0.229,0.955,1.055,1.501,1.587,2.248l0.083,0.15c1.505,0.762,2.145,2.053,2.273,3.657c1.59,0.708,2.095,2.119,2.393,3.666
		c1.072,0.438,1.467,1.312,1.477,2.433c1.592,0.717,2.135,2.102,2.38,3.673c1.091,0.399,1.506,1.252,1.498,2.386
		c-0.001,0-0.001-0.001-0.002-0.001l0.001,0.001l0.037,0.063c1.553,0.732,2.145,2.067,2.341,3.649c1.091,0.375,1.533,1.192,1.5,2.33
		l0,0l0.09,0.167c1.479,0.768,2.158,2.031,2.282,3.638c1.595,0.702,2.099,2.116,2.396,3.664c1.074,0.438,1.469,1.312,1.473,2.435
		c1.58,0.729,2.136,2.103,2.375,3.679c1.093,0.4,1.5,1.254,1.485,2.386l0,0l0.045,0.079c1.54,0.735,2.146,2.058,2.336,3.64
		c1.089,0.371,1.549,1.172,1.506,2.316l0,0l0.097,0.184c1.457,0.78,2.156,2.026,2.267,3.637c1.586,0.707,2.112,2.104,2.406,3.656
		c1.078,0.437,1.462,1.315,1.47,2.437c1.593,0.717,2.149,2.092,2.389,3.668c1.093,0.401,1.5,1.254,1.485,2.386l0,0l0.045,0.079
		c1.567,0.746,2.146,2.104,2.324,3.709c2.102,1.504,3.314,3.573,3.857,6.071c1.599,0.702,2.123,2.105,2.415,3.662
		c1.084,0.431,1.474,1.306,1.471,2.434l0,0l0.003,0.006c1.578,0.726,2.147,2.09,2.382,3.666c1.091,0.397,1.515,1.238,1.488,2.376
		l0.054,0.097c1.535,0.757,2.155,2.084,2.331,3.688c2.102,1.504,3.314,3.573,3.857,6.071c1.604,0.705,2.114,2.116,2.394,3.675
		c1.085,0.424,1.479,1.297,1.477,2.424l0,0l0.012,0.021c1.587,0.72,2.144,2.088,2.365,3.667c1.088,0.392,1.521,1.226,1.502,2.364
		l0.056,0.098c1.55,0.75,2.149,2.089,2.318,3.695c2.101,1.503,3.326,3.565,3.862,6.068c1.589,0.711,2.125,2.104,2.407,3.663
		c1.085,0.424,1.479,1.297,1.478,2.425l0,0l0.012,0.021c1.586,0.722,2.146,2.089,2.361,3.671c1.085,0.395,1.513,1.23,1.495,2.365
		l0,0l0.06,0.104c1.546,0.75,2.156,2.08,2.313,3.691c2.093,1.509,3.309,3.577,3.859,6.071c1.602,0.709,2.131,2.106,2.397,3.673
		c1.086,0.417,1.488,1.282,1.488,2.414c-0.001,0-0.002-0.001-0.003-0.003c0,0.002,0.001,0.002,0.002,0.003l0.015,0.021
		c1.578,0.723,2.15,2.081,2.369,3.662c1.089,0.392,1.518,1.227,1.5,2.362l0,0l0.06,0.104c1.546,0.75,2.156,2.081,2.313,3.691
		c2.094,1.513,3.271,3.606,3.845,6.087c1.602,0.705,2.141,2.096,2.403,3.665c1.087,0.417,1.481,1.286,1.482,2.412l0,0l0.021,0.031
		c1.581,0.723,2.141,2.084,2.354,3.664c1.09,0.384,1.538,1.204,1.508,2.348l0,0l0.067,0.123c1.514,0.765,2.157,2.068,2.304,3.681
		c2.107,1.502,3.29,3.594,3.86,6.077c1.607,0.707,2.131,2.105,2.384,3.678c1.088,0.412,1.497,1.27,1.485,2.403l0.026,0.046
		c1.56,0.732,2.141,2.079,2.348,3.658c1.09,0.379,1.536,1.196,1.51,2.338l0,0l0.077,0.138c1.518,0.759,2.15,2.064,2.292,3.674
		c2.11,1.5,3.309,3.583,3.864,6.076c1.6,0.708,2.136,2.099,2.396,3.666c1.089,0.412,1.499,1.271,1.486,2.404l0.026,0.046
		c1.56,0.734,2.144,2.079,2.346,3.662c1.086,0.384,1.525,1.204,1.496,2.34c-0.503-0.745-1.004-1.489-1.506-2.233
		c-0.025-0.007-0.045-0.019-0.069-0.025c0.209,0.966,1.043,1.51,1.575,2.259l0.083,0.15c1.503,0.764,2.161,2.05,2.291,3.662
		c2.098,1.512,3.302,3.591,3.862,6.08c1.588,0.72,2.133,2.104,2.391,3.67c1.091,0.405,1.504,1.26,1.493,2.394
		c-0.001,0-0.001-0.001-0.003-0.001c0.001,0,0.001,0.001,0.002,0.001l0.033,0.056c1.561,0.732,2.137,2.078,2.339,3.657
		c1.091,0.376,1.538,1.192,1.511,2.331c-0.507-0.74-1.013-1.48-1.519-2.222c-0.024-0.007-0.044-0.02-0.069-0.026
		c0.229,0.955,1.055,1.501,1.587,2.248l0.083,0.15c1.499,0.761,2.155,2.042,2.289,3.646c1.586,0.714,2.078,2.132,2.377,3.676
		c1.073,0.438,1.467,1.312,1.477,2.433c1.592,0.717,2.135,2.102,2.38,3.673c1.091,0.4,1.506,1.252,1.498,2.386l0.036,0.063
		c1.553,0.732,2.145,2.067,2.341,3.649c1.092,0.375,1.534,1.192,1.5,2.33l0,0l0.09,0.167c1.479,0.769,2.158,2.032,2.282,3.637
		c1.595,0.703,2.098,2.117,2.396,3.664c1.072,0.438,1.467,1.312,1.477,2.433c1.592,0.717,2.135,2.102,2.381,3.674
		c1.092,0.402,1.507,1.252,1.488,2.389l0.039,0.07c1.531,0.747,2.139,2.07,2.329,3.652c1.089,0.372,1.549,1.173,1.507,2.316l0,0
		l0.097,0.185c1.456,0.779,2.156,2.025,2.268,3.636c1.585,0.707,2.111,2.104,2.405,3.656c1.078,0.437,1.462,1.315,1.471,2.437
		c1.592,0.717,2.148,2.091,2.388,3.668c1.093,0.4,1.5,1.254,1.485,2.385l0.046,0.079c1.54,0.735,2.145,2.059,2.335,3.64
		c1.089,0.372,1.549,1.173,1.506,2.316l0,0l0.097,0.185c1.461,0.78,2.143,2.04,2.253,3.646c1.59,0.703,2.113,2.104,2.404,3.656
		c1.084,0.43,1.474,1.305,1.471,2.434l0,0l0.003,0.006c1.578,0.725,2.147,2.09,2.382,3.666c1.091,0.396,1.515,1.238,1.488,2.377l0,0
		l0.054,0.096c1.536,0.756,2.155,2.084,2.331,3.688c2.102,1.504,3.314,3.572,3.857,6.07c1.6,0.703,2.124,2.107,2.415,3.664
		c1.083,0.434,1.462,1.314,1.458,2.438l0.01,0.016c1.583,0.725,2.144,2.092,2.364,3.672c1.088,0.393,1.521,1.227,1.502,2.363
		l0.056,0.098c1.551,0.75,2.149,2.09,2.318,3.695c2.101,1.502,3.326,3.564,3.862,6.068c1.588,0.711,2.125,2.104,2.407,3.66
		c1.083,0.42,1.473,1.297,1.501,2.412c0.685,0.611,1.368,1.225,2.052,1.836c42.283-0.055,84.564-0.139,126.847-0.156
		c61.604-0.027,123.21,0.004,184.813-0.033c3.979-0.002,7.959-0.373,11.939-0.574c0-0.002,0-0.002,0.001-0.002
		c0.017-26.141,0.033-52.281,0.049-78.423c-3.973-0.195-7.944-0.562-11.918-0.563C978.782,716.551,892.35,716.594,805.917,716.437z"
		/>
	<polygon fill="#18164B" points="502.916,252.958 502.916,252.956 502.916,252.957 	"/>
	<path fill="#18164B" d="M613.786,578.189c0.005,0.091,0.021,0.174,0.037,0.256c-0.011-0.085-0.029-0.166-0.033-0.255
		C613.789,578.19,613.788,578.189,613.786,578.189z"/>
	<path fill="#18164B" d="M721.83,748.145c-0.001,0.168,0.021,0.322,0.054,0.469c-0.023-0.148-0.045-0.301-0.046-0.467
		C721.835,748.146,721.833,748.146,721.83,748.145z"/>
	<path fill="#18164B" d="M715.628,738.356c0.255,0.927,1.063,1.473,1.564,2.229c-0.503-0.735-1.005-1.471-1.508-2.206
		C715.664,738.373,715.648,738.363,715.628,738.356z"/>
	<path fill="#18164B" d="M585.812,534.165c0.003,0.149,0.022,0.29,0.054,0.422c-0.021-0.136-0.043-0.272-0.046-0.421
		C585.814,534.166,585.814,534.165,585.812,534.165z"/>
	<path fill="#18164B" d="M599.812,556.164c0.003,0.15,0.022,0.291,0.054,0.423c-0.021-0.136-0.043-0.273-0.046-0.421
		C599.814,556.166,599.814,556.165,599.812,556.164z"/>
	<path fill="#18164B" d="M558.97,340.982c0.028,0.156,0.071,0.302,0.083,0.469C559.036,341.288,559.007,341.131,558.97,340.982z"/>
	<path fill="#18164B" d="M1591.577,572.384c0.343,0.901,1.104,1.475,1.712,2.17c-0.561-0.719-1.118-1.438-1.678-2.155
		C1591.599,572.396,1591.59,572.388,1591.577,572.384z"/>
	<path fill="#18164B" d="M1441.376,476.347c0.867-0.496,1.735-0.992,2.603-1.486C1442.941,475.06,1442.181,475.742,1441.376,476.347
		z"/>
	<path fill="#18164B" d="M1457.564,565.976c-0.086,0.034-0.173,0.066-0.267,0.092
		C1457.392,566.043,1457.478,566.009,1457.564,565.976z"/>
	<path fill="#18164B" d="M1460.711,562.684c-0.057,0.187-0.126,0.358-0.219,0.507
		C1460.583,563.041,1460.659,562.875,1460.711,562.684z"/>
	<path fill="#18164B" d="M1621.306,488.457c-0.665-0.599-1.366-1.149-2.101-1.659c-0.001,0-0.003,0-0.005,0
		C1619.902,487.35,1620.604,487.904,1621.306,488.457z"/>
	<path fill="#18164B" d="M1459.939,563.745c-0.151,0.096-0.328,0.167-0.519,0.224
		C1459.616,563.916,1459.786,563.838,1459.939,563.745z"/>
	<path fill="#18164B" d="M1625.461,491.167c-0.175-0.055-0.359-0.097-0.566-0.111c0,0.002,0.001,0.003,0.001,0.005
		C1625.1,491.078,1625.284,491.118,1625.461,491.167z"/>
	<path fill="#18164B" d="M1616.469,484.884c0.205,0.019,0.387,0.069,0.573,0.112
		C1616.859,484.947,1616.672,484.905,1616.469,484.884z"/>
	<path fill="#18164B" d="M1651.165,516.701c0.007,0.002,0.012,0.006,0.019,0.009c-0.48-0.81-1.188-1.418-1.848-2.068
		C1649.946,515.329,1650.556,516.013,1651.165,516.701L1651.165,516.701z"/>
	<path fill="#18164B" d="M1654.749,520.47c0.021,0.078,0.043,0.154,0.058,0.237C1654.793,520.625,1654.771,520.547,1654.749,520.47z
		"/>
	<path fill="#18164B" d="M1654.846,521.059c-0.002-0.062-0.014-0.114-0.019-0.173c0.006,0.056,0.012,0.113,0.016,0.172
		C1654.844,521.058,1654.845,521.058,1654.846,521.059z"/>
	<path fill="#18164B" d="M1445.392,474.249c0.824-0.472,1.647-0.941,2.473-1.413
		C1446.895,473.054,1446.211,473.771,1445.392,474.249z"/>
	<path fill="#18164B" d="M1659.061,526.726c0.015,0.006,0.025,0.015,0.039,0.021c-0.375-0.858-1.121-1.432-1.69-2.139
		c0.551,0.708,1.102,1.417,1.652,2.124C1659.062,526.73,1659.061,526.728,1659.061,526.726z"/>
	<path fill="#18164B" d="M1667.036,538.756c-0.436-0.74-0.911-1.453-1.438-2.132c0.477,0.709,0.951,1.418,1.428,2.127
		C1667.029,538.753,1667.032,538.755,1667.036,538.756z"/>
	<path fill="#18164B" d="M1631.273,496.573c-0.65-0.655-1.26-1.358-2.06-1.847c0.001,0.004,0.003,0.006,0.005,0.011
		C1629.904,495.348,1630.589,495.96,1631.273,496.573z"/>
	<path fill="#18164B" d="M1589.771,570.127c0.016,0.193,0.053,0.368,0.103,0.532c-0.042-0.169-0.085-0.338-0.099-0.53
		C1589.773,570.129,1589.771,570.128,1589.771,570.127z"/>
	<path fill="#18164B" d="M1449.385,472.291c0.887-0.474,1.772-0.946,2.658-1.419
		C1450.984,471.021,1450.221,471.724,1449.385,472.291z"/>
	<path fill="#18164B" d="M1610.491,480.882c0.166,0.011,0.312,0.053,0.467,0.082
		C1610.809,480.926,1610.654,480.898,1610.491,480.882z"/>
	<path fill="#18164B" d="M1609.286,480.258c-0.699-0.483-1.396-0.974-2.085-1.469v0.001
		C1607.896,479.281,1608.592,479.769,1609.286,480.258z"/>
	<path fill="#18164B" d="M1457.648,565.946c0.725-0.31,1.141-0.907,1.183-1.859c-0.001,0-0.002,0-0.003,0
		C1458.754,565.006,1458.361,565.627,1457.648,565.946z"/>
	<path fill="#18164B" d="M1575.298,556.068c0.149,0.045,0.308,0.079,0.479,0.096c0,0,0-0.001-0.001-0.002
		C1575.603,556.148,1575.452,556.105,1575.298,556.068z"/>
	<path fill="#18164B" d="M1456.859,566.283c0.007-0.047,0.027-0.081,0.032-0.131c-0.002,0-0.004,0.002-0.006,0.002
		C1456.882,566.201,1456.866,566.238,1456.859,566.283z"/>
	<path fill="#18164B" d="M1687.486,596.611c-0.131-1.064-0.26-2.132-0.39-3.196c-1.919-2.675-1.889-5.743-1.778-8.828l-0.494-0.481
		l0.253-0.641c-1.856-1.943-1.884-4.368-1.802-6.82c-0.142-0.135-0.256-0.276-0.357-0.424c-1.313-1.621-1.684-3.53-1.481-5.614
		c-0.586-0.3-0.704-0.728-0.354-1.284c-1.582-1.205-1.859-2.89-1.731-4.723l-0.013-0.042c-0.189-0.146-0.336-0.311-0.461-0.482
		c-1.318-1.486-1.764-3.31-1.795-5.292c-1.535-0.966-1.838-2.479-1.806-4.142c-1.477-0.953-1.971-2.365-1.891-4.045l-0.034-0.084
		c-1.38-0.937-2.037-2.241-1.987-3.904c0,0,0,0.001,0.002,0.001l-0.002-0.001l-0.032-0.065c-1.492-0.865-2.069-2.22-2.086-3.876
		c-1.546-0.808-2.068-2.197-2.218-3.802c-1.046-0.364-1.499-1.127-1.431-2.238l-0.592-0.344l0.038-0.685
		c-1.213-0.575-1.771-1.568-1.861-2.86c-1.076-0.28-1.623-0.951-1.518-2.103c0.505,0.686,1.009,1.369,1.513,2.053l0,0
		c-0.529-0.666-1.035-1.349-1.512-2.053l-0.619-0.354l-0.001-0.715c-1.199-0.534-1.814-1.477-1.971-2.74
		c-1.096-0.321-1.639-1.069-1.668-2.218l-0.072-0.109c-1.531-0.619-2.258-1.85-2.608-3.364c-1.071-0.339-1.6-1.121-1.756-2.201
		c-1.106-0.301-1.666-1.065-1.8-2.188c-1.118-0.251-1.729-0.954-1.836-2.104l-0.052-0.06c-1.137-0.179-1.745-0.835-1.802-1.989
		l-0.13-0.151c-5.052-4.19-9.669-8.814-13.864-13.86l-0.168-0.147c-1.144-0.057-1.786-0.661-1.957-1.784
		c0.006,0.006,0.011,0.011,0.017,0.016c-0.005-0.005-0.011-0.01-0.017-0.016l-0.09-0.075c-1.153-0.097-1.838-0.719-2.076-1.837
		c-1.139-0.119-1.904-0.677-2.185-1.807c-1.097-0.148-1.872-0.687-2.181-1.786c-1.522-0.308-2.723-1.045-3.334-2.559l-0.193-0.128
		c-1.144-0.016-1.859-0.571-2.152-1.666c-1.265-0.108-2.191-0.699-2.688-1.908h-0.001c-0.635,0.177-1.031-0.055-1.188-0.696
		c-1.123,0.112-1.735-0.457-1.994-1.496c0.003,0.003,0.006,0.006,0.01,0.008c-0.003-0.002-0.006-0.004-0.009-0.008l-0.042-0.028
		c-1.275-0.039-2.231-0.571-2.749-1.779c-0.619,0.212-1.021,0.004-1.205-0.624c-1.15,0.136-1.85-0.37-2.128-1.469
		c-1.613-0.074-2.94-0.651-3.739-2.151h0.001l0,0l-0.159-0.078c-1.625,0.074-2.809-0.661-3.662-1.999h0.001l0,0l-0.306-0.129
		c-1.268,0.075-2.251-0.365-2.828-1.551c0.028,0.001,0.053,0.009,0.08,0.01c-0.027-0.002-0.052-0.009-0.08-0.011
		c-0.57,0.281-0.958,0.122-1.165-0.479c-1.618,0.153-2.85-0.493-3.753-1.813l-0.272-0.104c-1.641,0.123-2.995-0.375-3.917-1.808
		h0.001l-0.123-0.049c-1.752,0.085-3.36-0.183-4.422-1.797c-0.635,0.279-1.141,0.128-1.519-0.455
		c-1.69,0.196-3.171-0.156-4.222-1.621c-0.691,0.269-1.287,0.126-1.785-0.425c-1.716,0.23-3.226-0.121-4.367-1.527
		c-0.645,0.323-1.184,0.198-1.619-0.375c-2.271,0.253-4.361-0.123-6.111-1.715c0,0,0,0,0.001,0
		c-0.632-0.104-1.263-0.211-1.895-0.315c-2.411,0.204-4.77,0.183-6.734-1.551c-0.001,0-0.001,0-0.002-0.001
		c-1.087-0.145-2.175-0.288-3.262-0.433c-3.683,0.176-7.354,0.268-10.737-1.588c-0.004-0.002-0.007-0.003-0.011-0.005
		c-4.421-0.168-8.841-0.336-13.262-0.505c-3.301-0.015-6.602-0.028-9.899-0.044c-4.491,0.182-8.983,0.36-13.475,0.54
		c-0.208,0.111-0.418,0.208-0.631,0.292c-3.148,1.462-6.517,1.445-9.907,1.266c-1.153,0.151-2.309,0.305-3.461,0.457
		c-1.926,1.597-4.179,1.79-6.537,1.532c-0.666,0.105-1.333,0.213-1.999,0.318c-0.164,0.167-0.339,0.296-0.52,0.409
		c-1.613,1.19-3.458,1.563-5.485,1.294c-0.492,0.556-1.077,0.682-1.755,0.38c-1.095,1.386-2.557,1.756-4.231,1.529
		c-0.617,0.146-1.235,0.295-1.853,0.442c-1.057,1.39-2.483,1.813-4.155,1.604c-0.423,0.583-0.968,0.737-1.634,0.463
		c-1.063,1.523-2.604,1.87-4.33,1.761c0,0,0,0,0-0.001l-0.197,0.072c-0.943,1.329-2.21,1.949-3.85,1.754
		c-0.285,0.594-0.729,0.755-1.329,0.483c-0.534,1.133-1.439,1.569-2.658,1.419c-0.357,0.599-0.865,0.78-1.521,0.545
		c-0.479,1.077-1.313,1.526-2.472,1.413c-0.289,0.626-0.76,0.829-1.413,0.61c-0.505,1.132-1.394,1.59-2.603,1.487
		c-0.199,0.608-0.594,0.786-1.183,0.533c-0.552,1.199-1.521,1.68-2.798,1.639l0,0l-0.186,0.086
		c-2.105,2.102-4.368,3.961-5.193-0.791c-0.109-0.629-0.17-1.268-0.201-1.911c-0.035-0.311-0.041-0.637-0.025-0.971
		c-0.011-1.687,0.13-3.398,0.13-5.086c-0.001-84.479,0.011-168.958-0.036-253.437c-0.002-3.916,0.93-8.03-1.562-11.646
		c0.001,0,0.001,0,0.002,0.001c-0.001-0.001-0.003-0.003-0.005-0.004c-3.861,1.35-7.861,0.703-11.78,0.646
		c-21.433-0.311-42.878,0.878-64.298-0.592c-0.909,0.795-1.818,1.59-2.729,2.386c0.14,3.32,0.4,6.642,0.4,9.962
		c0.021,188.996,0.021,377.993,0,566.989c-0.001,3.32-0.271,6.641-0.414,9.961c2.278,2.729,5.427,2.039,8.349,2.043
		c21.946,0.029,43.894,0.047,65.84,0c8.091-0.02,8.206-0.104,8.212-8.205c0.037-52.54,0.002-105.079,0.051-157.618
		c0.004-4.275-0.736-8.668,1.234-12.779c0.001-0.002,0.001-0.004,0.002-0.007c-0.826-1.702-0.455-3.346,0.246-4.973
		c-0.289-3.163-0.477-6.31,1.658-9.03c0.001-0.002,0.002-0.005,0.003-0.008l-0.255-0.526l0.42-0.408
		c-0.152-2.423-0.083-4.783,1.856-6.619c-0.327-0.604-0.192-1.077,0.402-1.42c-0.183-1.665,0.118-3.135,1.626-4.12
		c-0.015-1.655,0.257-3.18,1.841-4.107c0.101-1.626,0.438-3.128,2.043-3.978c0.118-1.632,0.617-3.042,2.246-3.794l0.021-0.031
		c0.005-1.139,0.425-1.993,1.526-2.388c0.262-1.558,0.903-2.852,2.491-3.479l0.078-0.114c0.038-1.162,0.604-1.89,1.731-2.158
		c0.132-1.133,0.694-1.897,1.826-2.179c0.177-1.102,0.77-1.836,1.869-2.124c0.206-1.106,0.843-1.805,1.95-2.063
		c0.236-1.101,0.904-1.77,2.006-2.005c0.255-1.108,0.949-1.751,2.064-1.944c0.27-1.112,0.994-1.717,2.106-1.888
		c0.264-1.146,1.031-1.706,2.168-1.834c0.243-1.144,0.979-1.695,2.135-1.742l0,0l0.138-0.098c0.588-1.604,1.877-2.25,3.436-2.528
		c0.376-1.145,1.257-1.529,2.385-1.543l0.02-0.015c0.674-1.707,2.135-2.141,3.752-2.323l0,0l0,0c0,0,0,0,0.001,0l0,0l0.008,0.007
		c2.16-2.302,4.75-3.768,7.938-4.064l0,0l0,0l0,0v0.001l0.098,0.49l-0.059-0.49c0.972-1.631,2.552-1.758,4.205-1.701
		c0,0,0,0,0,0.001l0.01,0.02c1.538-2.071,3.767-2.063,6.014-1.997l0.01,0.032c2.268-2.319,5.157-2.075,8.02-1.955l0.051,0.013
		c10.862-3.117,21.734-3.066,32.615-0.103c0.002,0,0.004,0,0.006,0l0.793-0.262l0.662,0.509c2.488-0.206,4.945-0.279,6.889,1.714
		l0,0c0.001,0,0.001,0,0.002,0.001l0.648-0.239l0.457,0.52c1.892-0.162,3.678-0.019,4.92,1.701h-0.001c0.001,0,0.002,0,0.003,0.001
		l0.663-0.176l0.426,0.538c1.667-0.132,3.146,0.169,4.048,1.776h-0.001l0.059,0.025c1.659-0.025,3.143,0.305,3.959,1.971h-0.001
		l0.042,0.022c1.629,0.019,3.021,0.47,3.784,2.069l0.177,0.1c1.126-0.035,1.974,0.35,2.315,1.493
		c1.576,0.206,2.879,0.819,3.519,2.405h-0.001l0,0l0.163,0.107c1.156,0.018,1.901,0.553,2.167,1.688
		c1.142,0.11,1.941,0.644,2.229,1.81c5.711,3.601,10.479,8.149,13.998,13.947c1.146,0.314,1.681,1.116,1.803,2.245
		c1.124,0.301,1.653,1.065,1.676,2.227l0.064,0.102c1.578,0.675,2.194,1.985,2.413,3.56c1.099,0.396,1.52,1.231,1.459,2.378
		c-0.001,0-0.001-0.001-0.002-0.001l0.001,0.001l0.073,0.148c1.461,0.854,2.09,2.152,2.05,3.813l0.018,0.035
		c1.538,0.901,2.021,2.307,1.905,3.996l0.037,0.104c0.169,0.124,0.302,0.261,0.42,0.404c1.445,1.458,1.877,3.306,1.826,5.342
		c1.919,1.637,1.96,3.847,1.833,6.108c0.161,0.182,0.291,0.37,0.405,0.563c1.553,2.242,1.654,4.804,1.356,7.454
		c0.627,1.11,0.806,2.267,0.355,3.487c2.188,4.385,1.47,9.111,1.474,13.711c0.051,53.146,0.021,106.291,0.041,159.437
		c0.005,12.717-0.935,11.033,11.354,10.928c22.901-0.201,45.815,0.816,68.709-0.553c0.001,0,0.001-0.002,0.001-0.002
		c-0.026-18.285-0.089-36.57-0.073-54.856c0.036-43.207,0.108-86.416,0.166-129.624c-0.318-0.667-0.528-1.347-0.673-2.032
		C1687.357,605.002,1687.384,600.811,1687.486,596.611z"/>
	<path fill="#18164B" d="M1458.831,564.086c0.016-0.001,0.026-0.007,0.042-0.009c-0.014,0.002-0.027,0.005-0.042,0.006
		C1458.831,564.084,1458.831,564.085,1458.831,564.086z"/>
	<path fill="#18164B" d="M1478.971,548.134l0.409,0.304l-0.368-0.303C1478.999,548.134,1478.985,548.134,1478.971,548.134
		L1478.971,548.134z"/>
	<path fill="#18164B" d="M1451.393,572.55c0.604-0.691,1.338-1.273,1.752-2.118c-0.008,0.002-0.013,0.006-0.021,0.009
		C1452.547,571.144,1451.97,571.846,1451.393,572.55z"/>
	<path fill="#18164B" d="M1459.972,563.724c0.202-0.129,0.368-0.295,0.497-0.497
		C1460.337,563.427,1460.171,563.593,1459.972,563.724z"/>
	<path fill="#18164B" d="M1472.835,552.044c-0.001,0.007-0.003,0.013-0.004,0.02l0.488,0.316l-0.402-0.337
		c-0.025,0-0.047,0.001-0.072,0.001C1472.841,552.043,1472.838,552.044,1472.835,552.044z"/>
	<path fill="#18164B" d="M1462.89,560.138c0.052-0.005,0.088-0.026,0.138-0.034c-0.048,0.008-0.087,0.024-0.137,0.029
		C1462.891,560.135,1462.891,560.136,1462.89,560.138z"/>
	<polygon fill="#18164B" points="1472.917,552.043 1472.922,552.042 1472.916,552.042 	"/>
	<path fill="#18164B" d="M1460.831,562.083c0,0.001,0,0.002,0,0.003c1.099-0.045,1.728-0.588,1.978-1.533
		C1462.551,561.489,1461.893,562,1460.831,562.083z"/>
	<path fill="#18164B" d="M1567.316,550.123c0.121,0.031,0.25,0.05,0.39,0.056l0,0
		C1567.566,550.173,1567.445,550.143,1567.316,550.123z"/>
	<path fill="#18164B" d="M1462.886,560.162c0.001-0.008,0.003-0.016,0.004-0.023l0,0
		C1462.889,560.146,1462.887,560.154,1462.886,560.162z"/>
	<path fill="#18164B" d="M1456.893,566.152c0.01,0,0.019-0.004,0.027-0.005C1456.91,566.149,1456.902,566.152,1456.893,566.152
		L1456.893,566.152z"/>
	<path fill="#18164B" d="M1460.825,562.113c0-0.011,0.005-0.018,0.005-0.027c0,0-0.001,0-0.002,0
		C1460.828,562.095,1460.826,562.103,1460.825,562.113z"/>
	<path fill="#18164B" d="M1782.667,531.239c-0.403,0.474-0.845,0.919-1.127,1.483c0.008-0.003,0.014-0.007,0.021-0.009
		C1781.93,532.221,1782.298,531.729,1782.667,531.239z"/>
	<path fill="#18164B" d="M2050.912,512.998c-0.002-0.014-0.007-0.022-0.01-0.035
		C2050.904,512.975,2050.909,512.986,2050.912,512.998L2050.912,512.998z"/>
	<path fill="#18164B" d="M1793.841,736.093c0.017,0.563,0.181,0.994,0.456,1.326c-0.265-0.342-0.418-0.783-0.454-1.326
		C1793.842,736.093,1793.842,736.093,1793.841,736.093z"/>
	<path fill="#18164B" d="M1825.605,487.009c0.228-0.061,0.464-0.109,0.719-0.132C1826.064,486.897,1825.83,486.946,1825.605,487.009
		z"/>
	<path fill="#18164B" d="M1812.53,755.65c0.327,0.264,0.747,0.424,1.284,0.447c0-0.002,0-0.002,0-0.004
		C1813.289,756.057,1812.867,755.902,1812.53,755.65z"/>
	<path fill="#18164B" d="M1792.375,517.665c-0.326,0.346-0.516,0.81-0.516,1.433c0.002,0,0.003,0,0.004,0
		C1791.896,518.502,1792.064,518.023,1792.375,517.665z"/>
	<path fill="#18164B" d="M1811.689,754.23c0.041,0.15,0.089,0.291,0.143,0.426c-0.051-0.137-0.106-0.268-0.141-0.424
		C1811.689,754.23,1811.689,754.23,1811.689,754.23z"/>
	<path fill="#18164B" d="M1823.31,764.057c0.142,0.037,0.289,0.066,0.45,0.078v-0.002
		C1823.597,764.123,1823.455,764.088,1823.31,764.057z"/>
	<path fill="#18164B" d="M1785.92,726.675c-0.016-0.071-0.035-0.139-0.046-0.213C1785.885,726.537,1785.902,726.606,1785.92,726.675
		z"/>
	<path fill="#18164B" d="M1998.677,472.868c0.872,0.481,1.743,0.964,2.614,1.445
		C2000.473,473.736,1999.715,473.047,1998.677,472.868z"/>
	<path fill="#18164B" d="M1837.691,478.975c0.187-0.037,0.366-0.083,0.567-0.095C1838.06,478.894,1837.873,478.93,1837.691,478.975z
		"/>
	<path fill="#18164B" d="M1815.801,495.068c-0.255,0.015-0.479,0.064-0.686,0.137c0.207-0.068,0.437-0.108,0.685-0.128
		C1815.8,495.075,1815.801,495.072,1815.801,495.068z"/>
	<path fill="#18164B" d="M2025.424,489.152c-0.164-0.047-0.336-0.082-0.527-0.095c0,0.002,0,0.003,0.002,0.005
		C2025.087,489.075,2025.257,489.111,2025.424,489.152z"/>
	<path fill="#18164B" d="M2038.966,500.968c-0.006-0.023-0.018-0.042-0.022-0.066c0.005,0.023,0.015,0.043,0.02,0.065
		C2038.964,500.967,2038.965,500.968,2038.966,500.968z"/>
	<path fill="#18164B" d="M1807.462,502.696c0.669-0.643,1.336-1.282,2.004-1.924c-0.001,0-0.001,0-0.002,0
		c0.003-0.008,0.007-0.014,0.01-0.021c-0.837,0.481-1.48,1.163-2.023,1.953C1807.455,502.702,1807.458,502.698,1807.462,502.696
		C1807.462,502.695,1807.462,502.695,1807.462,502.696z"/>
	<path fill="#18164B" d="M1813.661,496.895c-0.002,0.007-0.004,0.012-0.006,0.018l0,0
		C1813.657,496.906,1813.66,496.902,1813.661,496.895z"/>
	<path fill="#18164B" d="M2037.118,499.093c-0.077-0.015-0.138-0.047-0.22-0.056c0,0.002,0.002,0.004,0.002,0.007
		C2036.98,499.053,2037.044,499.08,2037.118,499.093z"/>
	<path fill="#18164B" d="M1799.475,510.696c0.655-0.66,1.312-1.32,1.967-1.979l0,0c0.008-0.007,0.015-0.015,0.021-0.021
		l-0.021,0.021c0.002-0.003,0.005-0.006,0.008-0.009c-0.79,0.536-1.454,1.195-1.981,1.993
		C1799.47,510.698,1799.472,510.696,1799.475,510.696L1799.475,510.696z"/>
	<path fill="#18164B" d="M1812.212,755.334c-0.021-0.025-0.04-0.053-0.06-0.078C1812.171,755.281,1812.191,755.307,1812.212,755.334
		z"/>
	<polygon fill="#18164B" points="2002.66,474.869 2002.66,474.869 2002.661,474.87 	"/>
	<path fill="#18164B" d="M1773.627,545.527c0.008-0.18,0.047-0.341,0.074-0.509C1773.665,545.18,1773.637,545.348,1773.627,545.527z
		"/>
	<path fill="#18164B" d="M2065.131,530.693c0.004,0.003,0.008,0.005,0.012,0.008c-0.277-0.516-0.682-0.936-1.061-1.373
		c0.35,0.458,0.7,0.916,1.05,1.374C2065.132,530.699,2065.131,530.697,2065.131,530.693z"/>
	<path fill="#18164B" d="M2073.004,542.861c-0.186-0.972-1.038-1.513-1.525-2.288c0.481,0.753,0.965,1.506,1.447,2.259
		C2072.954,542.839,2072.976,542.852,2073.004,542.861z"/>
	<path fill="#18164B" d="M2021.277,486.54c-0.683-0.614-1.241-1.391-2.179-1.664c0.005,0.014,0.011,0.022,0.015,0.037
		C2019.834,485.456,2020.556,485.998,2021.277,486.54z"/>
	<path fill="#18164B" d="M1785.846,726.109c0,0.056,0.01,0.104,0.014,0.156c-0.005-0.051-0.01-0.102-0.011-0.154
		C1785.848,726.109,1785.847,726.109,1785.846,726.109z"/>
	<path fill="#18164B" d="M2049.01,510.917L2049.01,510.917L2049.01,510.917z"/>
	<path fill="#18164B" d="M1803.462,506.693l-0.021,0.021c0.003-0.004,0.007-0.007,0.01-0.012c-0.796,0.539-1.463,1.207-2.002,2.002
		c0.005-0.003,0.009-0.009,0.015-0.012C1802.129,508.027,1802.796,507.361,1803.462,506.693z"/>
	<path fill="#18164B" d="M1778.641,537.253c-0.387,0.476-0.818,0.919-1.057,1.499c0.011-0.004,0.02-0.009,0.029-0.013
		C1777.955,538.244,1778.298,537.749,1778.641,537.253z"/>
	<path fill="#18164B" d="M1814.598,495.476c0.133-0.089,0.264-0.183,0.421-0.242
		C1814.863,495.297,1814.726,495.381,1814.598,495.476z"/>
	<path fill="#18164B" d="M1803.462,506.696c0.666-0.669,1.333-1.335,2-2.001l-0.021,0.021c0.003-0.004,0.007-0.007,0.01-0.012
		c-0.795,0.539-1.461,1.205-2,2c0.004-0.003,0.008-0.007,0.012-0.011C1803.462,506.695,1803.462,506.695,1803.462,506.696z"/>
	<path fill="#18164B" d="M2088.341,796.211c3.769,0.066,5.596-1.184,5.34-5.109c-0.149-2.316-0.02-4.652-0.021-6.979
		c-0.044-58.501-0.09-117.003-0.135-175.504c-0.67-1.676-0.949-3.384-0.416-5.156c-1.942-3.403-1.852-7.135-1.748-10.867
		c-0.567-0.38-0.646-0.843-0.234-1.388c-1.689-1.916-1.83-4.205-1.589-6.587c-0.552-0.499-0.655-1.078-0.312-1.737
		c-1.649-1.792-2.006-3.953-1.796-6.276c-0.585-0.32-0.696-0.763-0.336-1.322c-1.517-1.221-1.778-2.867-1.594-4.668
		c-0.585-0.331-0.718-0.793-0.397-1.386c-1.613-1.154-1.868-2.82-1.744-4.631l-0.019-0.054c-0.191-0.141-0.339-0.301-0.464-0.469
		c-1.34-1.452-1.836-3.251-1.913-5.223c-1.524-0.95-1.779-2.481-1.838-4.104c-1.567-0.881-1.94-2.36-1.998-3.998
		c-1.565-0.869-1.933-2.354-2.04-3.973c-1.57-0.8-1.982-2.252-2.177-3.828c-1.074-0.411-1.495-1.242-1.435-2.38l-0.086-0.177
		c-1.394-0.821-2.142-2.032-2.231-3.641c-1.067-0.296-1.597-0.979-1.491-2.121c-0.619-0.122-0.826-0.48-0.621-1.079
		c-1.2-0.552-1.783-1.516-1.906-2.789c-1.085-0.318-1.634-1.046-1.634-2.192l-0.119-0.192c-1.461-0.673-2.229-1.849-2.513-3.375
		c-1.099-0.33-1.613-1.125-1.732-2.237c-1.104-0.28-1.699-0.99-1.769-2.146c0.588,0.697,1.176,1.394,1.762,2.09
		c0.009,0.003,0.015,0.008,0.023,0.012c-0.445-0.827-1.168-1.419-1.784-2.101l-0.07-0.089c-1.085-0.213-1.688-0.84-1.701-1.975l0,0
		l-0.201-0.258c-2.14-1.209-3.686-2.93-4.562-5.229c-1.101-0.274-1.697-1.007-1.904-2.096c-1.094-0.244-1.749-0.92-1.976-2.018
		c-1.103-0.231-1.769-0.897-1.999-2c-1.103-0.231-1.77-0.898-2-2c-1.101-0.231-1.767-0.896-1.998-1.995
		c-1.09-0.215-1.804-0.831-2.063-1.934c-1.1-0.199-1.8-0.825-2.066-1.915c-1.488-0.324-2.514-1.205-3.087-2.623l0,0l0,0
		l-0.382-0.304c-1.063-0.018-1.641-0.578-1.801-1.606l-0.24-0.192c-1.153-0.01-1.802-0.612-2.016-1.723l-0.058-0.046
		c-1.154-0.068-1.891-0.64-2.177-1.755c-1.104-0.118-1.911-0.614-2.237-1.721c-1.531-0.304-2.813-0.955-3.43-2.521h0.001l0,0
		l-0.134-0.089c-1.134-0.023-1.919-0.512-2.234-1.622c-1.569-0.17-2.783-0.882-3.509-2.339l-0.232-0.128
		c-1.134,0.037-1.929-0.412-2.266-1.52c-1.587-0.158-2.935-0.717-3.684-2.262h0.001l0,0l-0.107-0.059
		c-1.308,0.002-2.314-0.496-2.883-1.73h-0.001l-0.676,0.092l-0.38-0.565c-1.235,0.095-2.141-0.381-2.647-1.538
		c-0.626,0.233-1.083,0.048-1.368-0.557c-1.211,0.13-2.103-0.316-2.615-1.445c-0.633,0.238-1.094,0.055-1.386-0.556
		c-1.214,0.13-2.116-0.311-2.642-1.441c-0.608,0.263-1.061,0.097-1.354-0.498c-1.632,0.196-2.877-0.453-3.824-1.749
		c0.001,0,0.001,0,0.002,0l0,0l-0.217-0.074c-1.721,0.12-3.254-0.218-4.295-1.756c-0.678,0.262-1.235,0.104-1.676-0.475
		c-1.659,0.217-3.063-0.214-4.087-1.605h0.001c-0.64-0.146-1.279-0.291-1.919-0.438c-1.678,0.242-3.136-0.126-4.229-1.511
		c-0.679,0.302-1.263,0.175-1.756-0.379c-2.104,0.237-4.064-0.043-5.725-1.403c-0.116-0.082-0.229-0.175-0.339-0.279
		c-0.646-0.108-1.292-0.217-1.938-0.325c-2.396,0.243-4.707,0.108-6.672-1.532c0,0-0.001,0-0.002-0.001
		c-1.106-0.148-2.216-0.298-3.322-0.446c-3.686,0.204-7.353,0.283-10.735-1.57c-0.004-0.001-0.008-0.002-0.011-0.004
		c-4.422-0.168-8.842-0.336-13.263-0.504c-0.001,0-0.002,0-0.004-0.001c-3.298-0.015-6.598-0.028-9.896-0.043
		c-4.563,0.165-9.122,0.331-13.684,0.497c-0.355,0.211-0.722,0.366-1.091,0.49c-2.951,1.193-6.069,1.261-9.229,1.055
		c-1.267,0.146-2.529,0.289-3.795,0.436c-1.82,1.511-3.946,1.756-6.193,1.496c-1.177,0.193-2.354,0.388-3.529,0.582
		c-1.201,1.388-2.76,1.642-4.471,1.404c-0.71,0.136-1.42,0.271-2.13,0.407c-0.161,0.187-0.336,0.328-0.517,0.45
		c-1.555,1.25-3.393,1.602-5.397,1.418c-0.284,0.583-0.7,0.702-1.249,0.356c-1.164,1.637-2.863,1.841-4.673,1.744
		c0,0,0,0,0.001-0.001l-0.15,0.056c-0.952,1.372-2.27,1.895-3.904,1.688c-0.362,0.589-0.862,0.749-1.5,0.481
		c-1.043,1.616-2.646,1.962-4.407,1.944c-0.876,1.602-2.359,1.961-4.021,1.959l-0.007,0.002c-0.839,1.632-2.325,1.987-3.976,2.027
		c-0.775,1.623-2.227,2.04-3.837,2.169c-0.351,1.095-1.143,1.504-2.26,1.406l-0.401,0.589l-0.711-0.054
		c-0.542,1.227-1.525,1.755-2.823,1.787l0,0l-0.052,0.033c-0.696,1.602-2.079,2.122-3.645,2.354
		c-0.341,1.124-1.167,1.581-2.307,1.608l0,0l-0.038,0.025c-0.248,1.062-0.864,1.644-2.005,1.538
		c-0.106,0.626-0.463,0.843-1.068,0.648c-0.509,1.213-1.439,1.844-2.706,2.015c-0.295,1.121-1.062,1.651-2.206,1.709l0,0
		l-0.079,0.062c-0.221,1.092-0.859,1.682-2.001,1.669l0,0l-0.284,0.207c-0.574,1.474-1.685,2.289-3.183,2.624
		c-0.301,1.098-1.064,1.653-2.158,1.822c-0.271,1.104-1.006,1.694-2.107,1.873c-0.246,1.124-0.947,1.753-2.092,1.904
		c-0.228,1.125-0.912,1.771-2.05,1.949c-0.184,1.149-0.85,1.815-2,2c-0.184,1.149-0.85,1.815-2,2c-0.184,1.148-0.85,1.815-1.999,2
		c-0.183,1.146-0.852,1.811-1.99,2.008c-0.173,1.127-0.782,1.849-1.91,2.087c-0.172,1.128-0.816,1.816-1.918,2.077
		c-0.182,1.097-0.763,1.839-1.858,2.124c-0.188,1.069-0.743,1.825-1.808,2.149c-0.372,1.504-1.126,2.7-2.668,3.265l-0.122,0.165
		c-0.054,1.139-0.641,1.835-1.735,2.107c-0.088,1.134-0.604,1.93-1.703,2.264c-0.252,1.542-0.988,2.742-2.463,3.426v-0.001l0,0
		l-0.117,0.191c0.001,1.14-0.535,1.875-1.606,2.21c-0.131,1.586-0.919,2.751-2.308,3.529l-0.128,0.242
		c0.043,1.137-0.44,1.911-1.511,2.28c-0.145,1.602-0.762,2.923-2.263,3.715l-0.033,0.063c0.009,1.305-0.486,2.315-1.688,2.919
		c0,0,0,0,0,0.001l0.068,0.693l-0.579,0.391c0.101,1.104-0.259,1.939-1.308,2.365c-0.184,1.567-0.551,3.037-2.059,3.902
		c-0.138,1.776-0.479,3.456-2.136,4.528v0.001c0.295,0.57,0.143,0.972-0.458,1.203c0.151,1.667-0.4,3.021-1.775,4.012
		c0.071,1.798-0.206,3.459-1.812,4.599c0.311,0.602,0.169,1.064-0.424,1.391c0.179,1.747-0.135,3.313-1.629,4.446
		c0.317,0.633,0.188,1.149-0.392,1.557c0.209,1.805,0.009,3.476-1.536,4.708v0.001c0.377,0.537,0.274,0.96-0.306,1.268
		c0.149,2.419,0.068,4.779-1.711,6.706c-0.001,0.001-0.001,0.002-0.002,0.003c0.407,0.526,0.322,0.955-0.255,1.286
		c0.129,3.077,0.183,6.138-1.739,8.813c-0.001,0.003-0.002,0.006-0.004,0.009c-0.123,1.064-0.246,2.13-0.369,3.194
		c0.081,4.648,0.064,9.286-0.941,13.825c-0.139,0.943-0.363,1.877-0.742,2.795c0.662,6.159,0.662,12.319,0.007,18.479
		c0.28,0.7,0.478,1.409,0.615,2.124c1.212,4.829,1.21,9.782,1.123,14.745c0.545,0.481,0.612,1.023,0.205,1.626
		c0.182,0.265,0.318,0.539,0.438,0.814c1.518,2.966,1.538,6.217,1.531,9.476c0.162,0.185,0.29,0.379,0.402,0.577
		c1.491,2.234,1.672,4.799,1.602,7.426c1.706,1.693,2.017,3.814,1.842,6.084l0.52,0.479l-0.198,0.678
		c1.588,1.252,1.853,2.975,1.728,4.837l0.011,0.029c0.174,0.138,0.308,0.289,0.426,0.446c1.348,1.499,1.785,3.346,1.82,5.347
		c1.534,0.974,1.834,2.487,1.777,4.156l0.006,0.015c1.425,0.969,1.996,2.336,1.89,4.021l0.042,0.111
		c1.329,0.956,2.032,2.225,1.938,3.89l0.059,0.133c1.392,0.9,2.081,2.173,2.038,3.835c0,0,0,0-0.002,0l0.022,0.045
		c1.504,0.842,2.085,2.198,2.166,3.834c1.563,0.76,2.066,2.165,2.304,3.731c1.086,0.401,1.49,1.259,1.493,2.382l0.042,0.069
		c1.555,0.7,2.177,2.014,2.408,3.584c1.097,0.369,1.548,1.198,1.58,2.328l0.037,0.055c1.568,0.632,2.229,1.926,2.566,3.457
		c1.073,0.369,1.563,1.176,1.676,2.267c1.115,0.301,1.647,1.073,1.724,2.212l0.044,0.059c2.204,1.245,3.656,3.106,4.52,5.453
		c1.095,0.296,1.682,1.033,1.862,2.128c1.105,0.271,1.698,1.005,1.885,2.104c1.116,0.245,1.755,0.939,1.927,2.069
		c1.131,0.231,1.749,0.946,1.925,2.073c1.142,0.193,1.81,0.857,1.992,2.006c1.148,0.184,1.814,0.852,2,2
		c1.134,0.176,1.833,0.809,2.055,1.943c1.14,0.158,1.84,0.791,2.074,1.918c1.108,0.182,1.845,0.773,2.097,1.896
		c1.107,0.17,1.848,0.758,2.126,1.869c2.335,0.852,4.171,2.305,5.401,4.492h-0.001l0,0l0.147,0.109
		c1.143,0.051,1.868,0.607,2.127,1.729c1.122,0.082,1.943,0.561,2.264,1.695c1.541,0.27,2.805,0.926,3.426,2.48h-0.001l0,0
		l0.181,0.117c1.134,0.012,1.921,0.486,2.216,1.619c2.485,0.566,4.511,1.834,5.985,3.938c1.607,0.154,3.02,0.639,3.759,2.25h-0.001
		l0,0l0.084,0.049c2.523,0.408,4.621,1.574,6.282,3.518c0.005,0,0.01,0.002,0.015,0.004c0.006,0.016,0.016,0.023,0.021,0.041
		c-0.004-0.018-0.012-0.029-0.016-0.047c1.582,0.166,3.124,0.408,3.979,2.008c0.002,0.002,0.004,0.002,0.006,0.002
		c0.003,0.004,0.006,0.006,0.009,0.01c-0.002-0.004-0.004-0.008-0.006-0.012c3.531,0.773,6.851,2.012,9.629,4.42h0.001l0.085,0.035
		c1.631-0.035,3.228,0.02,4.188,1.666h0.001l-0.006-0.021c2.154,0.215,4.414,0.139,5.91,2.154l-0.015-0.025
		c2.406,0.082,4.83,0.105,6.667,2.047h-0.001c0.001,0,0.001,0,0.002,0l0.664-0.24l0.479,0.52c2.41-0.131,4.791-0.141,6.685,1.729
		l0.738-0.238l0.581,0.516c3.067-0.127,6.131-0.229,8.788,1.732c0.002,0.002,0.005,0.002,0.008,0.004l0.651-0.32l0.531,0.496
		c5.025,0.047,10.072-0.08,14.948,1.32c0.565,0.133,1.128,0.301,1.683,0.535c1.823-0.652,3.619-0.609,5.388,0.207
		c4.663-0.611,9.327-0.65,13.995-0.061c1.16-0.648,2.344-0.666,3.547-0.127c0.732-0.314,1.479-0.521,2.23-0.664
		c4.646-1.188,9.424-1.168,14.205-1.111l0.75-0.492l0.855,0.27c0.211-0.137,0.426-0.252,0.644-0.35
		c3.011-1.621,6.323-1.662,9.653-1.609l0.024,0.012c2.294-2.082,5.135-2.035,7.961-2.047l0.009,0.023
		c1.593-1.941,3.793-1.936,6.01-1.881l0.131-0.045c1.557-1.832,3.656-2.068,5.859-2l0.088-0.029c1.479-1.91,3.617-2.113,5.785-2.238
		c0.92-1.646,2.492-1.77,4.122-1.756l0.056-0.023c0.878-1.578,2.342-1.895,3.973-1.85l0,0l0.168-0.076
		c0.859-1.479,2.208-1.973,3.834-1.91l0,0l0.18-0.082c0.843-1.482,2.184-2.004,3.808-1.98l0,0l0.114-0.061
		c0.807-1.568,2.212-2.039,3.843-2.098c0.586-1.309,1.757-2.082,3.021-2.027c0.974,0.043,1.199,1.229,1.009,2.229
		c0.124,6.994,0.248,13.988,0.372,20.98C2038.498,796.912,2063.426,795.777,2088.341,796.211z M1923.432,715.092
		c-49.216-1.286-88.377-40.19-88.069-89.679c0.317-51.337,43.795-89.215,88.831-87.491c46.397-1.355,88.525,38.258,88.685,88.928
		C2013.008,668.598,1977.135,716.496,1923.432,715.092z"/>
	<path fill="#18164B" d="M1805.462,504.696c0.659-0.661,1.318-1.32,1.978-1.979l0,0l0,0c0.002-0.001,0.002-0.002,0.005-0.003
		c0.002-0.003,0.005-0.006,0.006-0.009c-0.794,0.539-1.461,1.205-1.999,2C1805.455,504.702,1805.459,504.698,1805.462,504.696
		C1805.462,504.695,1805.462,504.695,1805.462,504.696z"/>
	<path fill="#18164B" d="M1994.648,470.87c0.882,0.48,1.762,0.962,2.643,1.441C1996.465,471.73,1995.702,471.035,1994.648,470.87z"
		/>
	<polygon fill="#18164B" points="1287.221,394.195 1287.221,394.193 1287.22,394.195 	"/>
	<path fill="#18164B" d="M1080.419,350.502c-0.054,3.175-0.076,6.352-0.083,9.528c0.098,10.132,0.236,20.265,0.011,30.393
		c-0.004,0.182,0.007,0.338,0.011,0.508c0.313,3.154,1.957,4.275,5.693,4.238c16.636-0.165,33.275-0.055,49.913-0.064
		c10.182-0.005,9.551-0.653,9.551,9.873c-0.004,126.117-0.008,252.234,0.019,378.352c0,4.203,0.276,8.402,0.438,12.604
		c24.971,0.068,49.94,0.139,74.911,0.203c0.211-4.221,0.583-8.441,0.584-12.662c0.032-123.68,0.026-247.359,0.026-371.04
		c-0.389-3.628-0.621-7.169,0.016-10.14c0.143-6.568,0.289-7.09,6.507-7.156c3.563-1.036,7.99-0.53,12.461-0.037
		c11.957-0.012,23.913,0.025,35.87-0.017c1.965-0.007,3.949,0.145,5.916,0.065c1.653-0.231,3.303-0.54,4.949-0.954
		c0.003-0.002,0.006-0.003,0.009-0.004c-0.072-22.311-0.175-44.623-0.203-66.934c-0.011-9.041,0.399-8.49-8.78-8.594
		c-18.298-0.206-36.605,0.645-54.896-0.489c-3.822-2.284-1.728-5.941-1.743-8.859c-0.169-31.579-0.063-63.16-0.168-94.739
		c-0.011-3.398,1.574-7.513-2.802-9.763c-0.003-0.001-0.006-0.002-0.009-0.003c-23.5,1.066-47.001,1.037-70.504,0.021
		c-3.959,2.527-2.541,6.543-2.552,10c-0.089,31.612,0.018,63.226-0.171,94.837c-0.017,2.83,2.337,6.672-2.062,8.613
		c-20.722,0.126-41.441,0.253-62.161,0.379c-0.535,7.153-0.772,14.31-0.861,21.467
		C1080.392,343.588,1080.478,347.047,1080.419,350.502z"/>
	<path fill="#18164B" d="M939.782,464.146c0.012,0.172,0.044,0.329,0.085,0.479c-0.034-0.153-0.07-0.307-0.081-0.478
		C939.785,464.147,939.783,464.147,939.782,464.146z"/>
	<path fill="#18164B" d="M939.698,604.972c-0.06,0.004-0.111,0.02-0.167,0.028c0.057-0.006,0.106-0.022,0.167-0.026
		C939.698,604.973,939.698,604.972,939.698,604.972z"/>
	<path fill="#18164B" d="M867.206,668.03c0.157,0.034,0.323,0.056,0.511,0.038l0.009-0.009
		C867.542,668.068,867.371,668.052,867.206,668.03z"/>
	<path fill="#18164B" d="M851.406,656.659c0.641,0.647,1.327,1.242,2.058,1.786c0,0,0-0.002-0.001-0.003
		C852.778,657.847,852.092,657.253,851.406,656.659z"/>
	<path fill="#18164B" d="M979.302,406.472c-0.667-0.607-1.362-1.183-2.086-1.726l0,0
		C977.912,405.322,978.607,405.897,979.302,406.472z"/>
	<path fill="#18164B" d="M998.913,542.981c-0.018-0.138-0.043-0.269-0.078-0.393c0.029,0.127,0.06,0.252,0.073,0.391
		C998.91,542.98,998.911,542.98,998.913,542.981z"/>
	<path fill="#18164B" d="M1001.104,430.737c-0.24-0.541-0.645-0.968-1.016-1.415c0.33,0.467,0.659,0.935,0.988,1.401
		C1001.086,430.727,1001.093,430.733,1001.104,430.737z"/>
	<path fill="#18164B" d="M940.105,604.006c0.058-0.085,0.116-0.168,0.184-0.242C940.223,603.84,940.162,603.921,940.105,604.006z"/>
	<path fill="#18164B" d="M871.629,670.161l-0.286,0.403l0.325-0.4c-0.001-0.003-0.003-0.005-0.004-0.008
		C871.652,670.158,871.641,670.159,871.629,670.161z"/>
	<path fill="#18164B" d="M829.811,630.188c0.001,0.061,0.013,0.114,0.019,0.171c-0.002-0.058-0.013-0.109-0.013-0.169
		C829.814,630.189,829.813,630.188,829.811,630.188z"/>
	<path fill="#18164B" d="M937.266,462.037c0.164,0.045,0.335,0.08,0.526,0.089c0-0.001,0-0.002-0.001-0.003
		C937.602,462.113,937.433,462.076,937.266,462.037z"/>
	<path fill="#18164B" d="M819.501,500.125c1.606,1.873,1.909,4.087,1.678,6.438c0.567,0.391,0.688,0.888,0.356,1.49
		c1.524,1.146,1.845,2.745,1.702,4.52l0.538,0.441l-0.157,0.679c1.612,1.14,1.946,2.841,2.078,4.633
		c1.548,0.876,1.866,2.385,2.021,3.976c1.531,0.784,1.974,2.224,2.258,3.761c1.068,0.44,1.451,1.321,1.47,2.436
		c2.113,1.411,3.435,3.395,4.2,5.777c1.135,0.292,1.686,1.07,1.79,2.219c-0.001,0-0.002-0.001-0.003-0.001
		c0.001,0,0.001,0.001,0.002,0.001l0.013,0.01c1.142,0.244,1.729,0.976,1.857,2.11c3.708,2.938,7.238,6.063,10.148,9.824
		l0.003,0.014c1.146,0.099,1.952,0.613,2.239,1.769c2.396,0.749,4.384,2.062,5.769,4.207c0,0,0,0-0.001,0l0,0l0.001,0.001
		c2.493,0.54,4.583,1.732,6.152,3.771c1.61,0.148,3.11,0.501,3.897,2.144c1.621,0.072,3.181,0.272,4.043,1.926
		c1.621,0.054,3.206,0.188,4.147,1.802l0,0l0.004-0.021c2.128,0.281,4.375,0.262,5.817,2.285c-0.006-0.01-0.011-0.019-0.016-0.027
		c2.191,0.127,4.483-0.055,6.05,1.979l-0.02-0.04c2.79,0.197,5.706-0.075,7.953,2.138l-0.013-0.053
		c3.655,0.097,7.353-0.038,10.639,2.013c0.004,0.002,0.009,0.004,0.013,0.006l0.644-0.348l0.544,0.487
		c4.321-0.027,8.718-0.554,12.684,1.854l0.736-0.273l0.6,0.508c2.668-0.224,5.256-0.124,7.451,1.577
		c0.145,0.095,0.285,0.206,0.422,0.331c0.015,0.014,0.032,0.022,0.047,0.036c0,0,0,0-0.001,0l0,0l0.176,0.051
		c1.661-0.16,3.243-0.106,4.232,1.556l0.016-0.018c1.65,0.075,3.188,0.363,3.979,2.076c3.075,1.021,5.42,2.74,5.96,6.188
		c2.096,1.658,1.929,3.896,1.542,6.189c0.02,0.682,0.038,1.36,0.058,2.04c0.455,2.33,0.489,4.54-1.706,6.117
		c0.011,1.183-0.478,2.022-1.626,2.403c-0.273,1.126-1.002,1.745-2.14,1.908c-0.354,1.146-1.178,1.583-2.348,1.494c0,0,0,0,0-0.002
		l-0.201,0.092c-0.876,1.456-2.175,1.969-3.817,1.717c-0.505,0.582-1.111,0.72-1.817,0.412c-1.739,1.797-3.903,1.859-6.17,1.51
		c-4.698,0.976-9.4,1.345-14.109,0.058c-2.066,0.329-3.977,0.109-5.526-1.366c-0.108-0.09-0.215-0.189-0.316-0.304l-0.198-0.063
		c-1.674,0.137-3.2-0.069-4.074-1.763c-1.659-0.029-3.029-0.544-3.72-2.207c0,0,0,0,0.001,0l0,0l-0.161-0.107
		c-1.193-0.029-1.865-0.649-2.055-1.813c-1.176-0.199-1.813-0.871-1.834-2.084c0.245,0.277,0.488,0.556,0.733,0.834
		c-0.246-0.276-0.479-0.563-0.732-0.834l-0.065-0.102c-1.689-0.778-2.128-2.196-1.991-3.906l-0.015-0.028
		c-1.613-4.226-3.835-6.488-9.207-6.364c-19.872,0.459-39.761,0.183-59.631,0.183c-2.009,3.648-0.389,7.086-1.294,10.183
		c0.109,1.145,0.22,2.289,0.33,3.434c1.793,2.612,1.868,5.573,1.741,8.574c0.572,0.342,0.672,0.789,0.297,1.341
		c1.843,1.788,1.932,4.127,2.056,6.456c1.493,1.02,1.761,2.54,1.676,4.207c0,0,0,0-0.001,0l0.027,0.074
		c0.208,0.132,0.363,0.29,0.493,0.459c1.346,1.362,1.831,3.133,2.127,4.992c1.054,0.474,1.384,1.361,1.32,2.477l0,0l0.054,0.109
		c1.454,0.826,2.112,2.121,2.235,3.735c2.101,1.433,3.324,3.478,4.105,5.833c1.126,0.307,1.67,1.089,1.774,2.234
		c1.116,0.237,1.719,0.923,1.788,2.065c-0.397-0.459-0.795-0.918-1.192-1.377c0.395,0.461,0.786,0.925,1.192,1.376l0.12,0.153
		c3.764,2.813,7.075,6.08,9.911,9.826l0.151,0.122c1.137,0.077,1.84,0.655,2.069,1.78c1.141,0.089,1.951,0.593,2.247,1.743
		c2.425,0.693,4.419,1.996,5.821,4.133c1.597,0.129,2.928,0.699,3.682,2.227c0,0,0,0-0.002,0l0,0l0.193,0.102
		c1.098-0.056,1.988,0.239,2.378,1.375c1.566,0.204,3.072,0.52,3.873,2.117c3.594,0.669,6.96,1.872,9.824,4.235
		c0.001,0,0.002,0.001,0.003,0.001l-0.002-0.021c2.193,0.097,4.453,0,6.017,1.997l-0.014-0.025c2.943,0.111,5.938,0.014,8.425,2.022
		l0.776-0.256l0.646,0.499c13.337,1.039,26.671,0.835,40.004-0.085l0.497-0.485l0.615,0.323c2.59-2.041,5.671-1.959,8.72-2.016
		l-0.013,0.029c1.595-1.982,3.833-1.899,6.051-1.887l0.063-0.02c1.49-1.928,3.649-2.084,5.823-2.205
		c0.903-1.658,2.484-1.773,4.109-1.791c0,0,0,0,0,0.001l0.039-0.02c0.847-1.624,2.342-1.908,3.968-1.927l0,0l0.084-0.045
		c0.8-1.595,2.23-2.031,3.856-2.108c0.717-1.641,2.176-2.051,3.746-2.273c0.347-1.14,1.21-1.518,2.324-1.523l0,0l0.107-0.069
		c0.652-1.598,1.999-2.157,3.549-2.411c0.324-1.134,1.155-1.599,2.276-1.678c0.253-1.116,0.964-1.683,2.104-1.728
		c-0.693,0.577-1.388,1.154-2.08,1.73c0,0.002-0.002,0.004-0.003,0.005c0.745-0.518,1.438-1.098,2.082-1.735l0.176-0.128
		c1.92-2.762,4.392-4.9,7.329-6.513c1.558-3.016,3.742-5.483,6.497-7.459v0.001l0,0l0.04-0.055c0.073-1.13,0.58-1.92,1.679-2.249
		c0.213-1.561,0.888-2.818,2.368-3.552c0,0,0,0,0,0.001l0,0l0.079-0.142c-0.024-1.128,0.396-1.959,1.47-2.359
		c0.193-1.57,0.578-3.036,2.129-3.861c0.108-1.598,0.346-3.136,1.854-4.085c0.24-2.139,0.379-4.314,2.19-5.863
		c0.119-2.592,0.288-5.169,1.703-7.418c0.122-0.232,0.264-0.461,0.456-0.677c-0.367-0.646-0.284-1.23,0.247-1.753
		c0.006-10.649,0.013-21.301,0.019-31.951c-0.141-1.029-0.281-2.06-0.423-3.09c-1.813-2.003-1.854-4.445-1.719-6.932l-0.511-0.496
		l0.218-0.677c-1.565-1.259-1.787-2.979-1.657-4.818l-0.53-0.424l0.172-0.656c-1.607-1.168-1.923-2.888-2.038-4.694
		c-1.544-0.891-1.887-2.386-1.994-3.998c-1.515-0.82-1.947-2.261-2.191-3.812c-1.082-0.407-1.494-1.261-1.498-2.388l-0.031-0.051
		c-1.529-0.689-2.2-1.976-2.5-3.518c-1.083-0.354-1.571-1.167-1.688-2.265c-1.102-0.288-1.688-1.011-1.778-2.155l0,0l-0.049-0.06
		c-1.122-0.192-1.729-0.847-1.783-1.992c0.001,0.001,0.001,0.002,0.002,0.003c0-0.001-0.001-0.001-0.001-0.002l-0.126-0.146
		c-1.127-0.152-1.744-0.777-1.792-1.931l-0.211-0.239c-1.021-0.136-1.604-0.716-1.751-1.732h0.001l0,0l-0.274-0.227
		c-1.121-0.028-1.718-0.625-1.857-1.715l-0.175-0.154c-1.151-0.05-1.796-0.669-1.996-1.781c0.666,0.595,1.332,1.188,1.996,1.781
		c-0.684-0.572-1.35-1.167-1.995-1.781l-0.062-0.056c-1.138-0.083-1.886-0.638-2.171-1.75c-1.096-0.107-1.923-0.573-2.274-1.672
		c-1.541-0.305-2.865-0.924-3.541-2.48l-0.038-0.027c-1.316-0.038-2.327-0.565-2.894-1.807c0.081,0.006,0.158,0.019,0.237,0.027
		c-0.08-0.01-0.156-0.023-0.239-0.028l-0.678,0.078l-0.361-0.579c-1.116,0.092-1.923-0.304-2.289-1.396
		c-1.589-0.141-3.096-0.438-3.921-2.045c-1.772-0.091-3.451-0.391-4.507-2.063c-0.582,0.299-1.009,0.15-1.281-0.443
		c-1.65,0.165-3.062-0.235-4.023-1.7l-0.056-0.02c-2.245,0.083-4.356-0.227-5.972-2.012c0,0,0,0,0.001,0
		c-0.658-0.14-1.316-0.278-1.975-0.418c-1.72,0.228-3.275-0.054-4.471-1.446c-0.601,0.368-1.099,0.263-1.494-0.32
		c-2.46,0.164-4.879,0.157-6.857-1.668c-0.001,0-0.002-0.001-0.003-0.001c-1.052-0.145-2.104-0.287-3.156-0.433
		c-3.083,0.188-6.146,0.268-8.867-1.592c-0.003-0.001-0.007-0.003-0.01-0.004c-1.773,0.636-3.46,0.233-5.125-0.428
		c-2.928,0.285-5.816,0.358-8.308-1.605c-0.648,0.364-1.208,0.261-1.68-0.313c-2.237,0.263-4.341,0.071-5.942-1.782c0,0,0,0,0.001,0
		l-0.138-0.045c-1.671,0.125-3.214-0.054-4.126-1.722c-1.67-0.054-3.161-0.427-3.897-2.163c-1.177-0.035-2-0.535-2.32-1.7
		c-1.123-0.238-1.775-0.927-1.981-2.046c-1.146-0.359-1.648-1.172-1.603-2.374l-0.009-0.018c-2.157-1.532-2.247-3.689-1.81-6.006
		c-0.547-1.347-0.546-2.692-0.006-4.042c-0.44-3.521-0.558-6.983,1.845-9.981l0.004-0.015c-0.156-1.724,0.131-3.252,1.825-4.154
		c1.237-4.111,3.896-6.789,8.061-7.944l0.052-0.027c1.412-2.172,3.595-2.294,5.857-2.198l0.011,0.094
		c6.804-2.734,13.605-2.68,20.405,0.012l0.01-0.1c2.271-0.104,4.524-0.159,6.071,1.966c0.001,0,0.001,0,0.002,0.001l0.001-0.028
		c1.662,0.074,3.188,0.39,3.908,2.161c1.166,0.054,1.986,0.56,2.311,1.72c1.133,0.215,1.799,0.896,2.019,2.02
		c1.139,0.346,1.648,1.163,1.704,2.319c1.688,0.788,2.057,2.278,2.11,3.937c1.556,1.017,1.731,2.541,1.488,4.218
		c0.579,0.469,0.681,1.024,0.305,1.668c2.182,2.563,1.109,5.98,2.479,9.341c0.252,0.31,0.536,0.57,0.863,0.791
		c20.431-0.001,41.205-0.034,61.98,0.035c3.469,0.012,4.724-1.516,4.563-4.823c-0.11-2.313,0.094-4.641,0.155-6.962
		c-0.662-1.613-1.031-3.251-0.388-4.968c-1.955-2.751-1.866-5.899-1.763-9.053c-0.574-0.327-0.661-0.752-0.259-1.276
		c-1.807-1.884-1.919-4.237-1.859-6.641c-1.7-1.623-2.093-3.708-2.108-5.925c-1.486-0.995-1.834-2.482-1.761-4.152l-0.025-0.064
		c-1.371-0.968-1.966-2.303-1.872-3.963c0,0,0.001,0.001,0.002,0.001c0,0,0-0.001-0.001-0.001l-0.071-0.174
		c-1.323-0.915-2.097-2.128-2.054-3.783l-0.026-0.052c-1.497-0.809-2.104-2.138-2.238-3.743c-1.064-0.363-1.558-1.132-1.533-2.263
		l-0.134-0.236c-1.402-0.729-2.194-1.88-2.414-3.426c-1.104-0.321-1.628-1.104-1.702-2.243l-0.025-0.033
		c-1.112-0.229-1.722-0.884-1.729-2.045c0.001,0.001,0.002,0.002,0.003,0.003c0,0-0.001-0.001-0.002-0.002l-0.162-0.214
		c-3.894-3.949-7.789-7.898-11.682-11.848l-0.349-0.271c-1.093-0.005-1.675-0.595-1.867-1.629c0.001,0.001,0.003,0.003,0.005,0.004
		c-0.001-0.001-0.003-0.003-0.004-0.004l-0.188-0.141c-1.141-0.046-1.843-0.624-2.11-1.727c-1.128-0.076-1.946-0.559-2.277-1.679
		c-1.552-0.25-2.863-0.865-3.551-2.408c0,0,0,0,0.001,0l0,0l-0.108-0.063c-1.258-0.009-2.188-0.53-2.696-1.717
		c-0.623,0.219-1.047,0.018-1.27-0.604c-1.135,0.15-1.898-0.269-2.203-1.393c-1.677-0.093-3.195-0.507-4.127-2.09
		c-0.697,0.219-1.258,0.029-1.682-0.565c-1.191,0.158-2.091-0.252-2.631-1.355l0,0c-0.594,0.287-1.042,0.139-1.344-0.448
		c-1.704,0.171-3.198-0.204-4.278-1.647c-0.683,0.286-1.261,0.145-1.732-0.426c-1.743,0.213-3.321-0.064-4.506-1.511
		c-0.592,0.36-1.082,0.253-1.468-0.322c-2.722,0.16-5.383,0.035-7.757-1.438c-0.142-0.075-0.281-0.165-0.419-0.263
		c-0.028-0.021-0.06-0.035-0.089-0.056c0,0,0.001,0,0.002,0c-1.254-0.131-2.508-0.262-3.761-0.395
		c-10.637-0.012-21.272-0.021-31.909-0.033c-1.285,0.134-2.569,0.268-3.854,0.4c-0.153,0.13-0.313,0.234-0.475,0.328
		c-1.704,1.131-3.609,1.446-5.655,1.192c-1.105,0.205-2.21,0.408-3.315,0.612c-1.229,1.555-2.906,1.771-4.719,1.587
		c-0.349,0.578-0.82,0.713-1.419,0.398c-1.11,1.589-2.745,1.855-4.51,1.786l-0.113,0.046c-0.915,1.451-2.276,1.949-3.921,1.837
		l-0.228,0.089c-0.888,1.349-2.116,2.059-3.753,1.991l0,0l-0.126,0.063c-0.793,1.507-2.127,2.079-3.728,2.192
		c-0.33,1.084-1.086,1.572-2.216,1.535l0,0l-0.293,0.163c-0.713,1.413-1.864,2.186-3.412,2.381
		c-0.301,1.119-1.084,1.644-2.218,1.732l-0.024,0.021c-0.24,1.101-0.909,1.703-2.045,1.762l0,0l-0.182,0.141
		c-2.849,3.716-6.124,7.002-9.88,9.803l-0.155,0.193c-0.026,1.157-0.636,1.806-1.757,2l-0.049,0.06
		c-0.092,1.147-0.682,1.867-1.789,2.146c-0.123,1.104-0.631,1.904-1.72,2.246c-0.297,1.529-1.003,2.77-2.509,3.438
		c0,0-0.001,0-0.001,0.001l-0.078,0.126c-0.008,1.135-0.489,1.929-1.571,2.29c-0.188,1.584-0.794,2.912-2.307,3.686
		c0,0,0,0.002-0.001,0.002l-0.026,0.047c-0.003,1.311-0.5,2.335-1.709,2.945c0.009-0.205,0.051-0.39,0.084-0.581
		c-0.043,0.186-0.077,0.376-0.085,0.582l0.073,0.682l-0.575,0.369c0.077,1.236-0.383,2.175-1.521,2.735
		c0.284,0.587,0.126,1.009-0.474,1.266c0.187,1.665-0.56,2.898-1.81,3.896l-0.027,0.078c0.116,1.773-0.226,3.367-1.768,4.487
		c0.306,0.63,0.17,1.143-0.409,1.538c0.203,1.773-0.084,3.383-1.558,4.589c0.36,0.576,0.25,1.042-0.33,1.396
		c0.159,2.444,0.104,4.837-1.643,6.824v-0.001c0,0,0,0.001-0.001,0.002c-0.14,1.063-0.279,2.122-0.419,3.183
		c0.027,10.653,0.054,21.308,0.081,31.96C819.811,499.014,819.895,499.531,819.501,500.125z"/>
	<path fill="#18164B" d="M892.96,494.992c-0.005,0-0.01-0.002-0.016-0.003l0,0C892.95,494.989,892.954,494.991,892.96,494.992z"/>
	<path fill="#18164B" d="M841.339,418.643c-0.661,0.652-1.384,1.25-1.813,2.099c0.011-0.004,0.019-0.012,0.029-0.016
		C840.15,420.033,840.744,419.338,841.339,418.643z"/>
	<path fill="#18164B" d="M835.242,426.598c-0.546,0.731-1.329,1.291-1.623,2.202c0.019-0.006,0.033-0.015,0.052-0.021
		C834.195,428.052,834.719,427.325,835.242,426.598z"/>
	<path fill="#18164B" d="M867.717,668.068l-0.402,0.353l0.479-0.342c-0.001-0.005-0.003-0.009-0.004-0.015
		C867.765,668.068,867.742,668.065,867.717,668.068z"/>
	<path fill="#18164B" d="M938.992,463.931c-0.002-0.001-0.003-0.002-0.005-0.003C938.989,463.929,938.99,463.93,938.992,463.931z"/>
	<path fill="#18164B" d="M941.89,602.535c-0.042,0.161-0.072,0.33-0.075,0.519c0.002,0,0.004,0,0.006,0
		C941.827,602.869,941.855,602.7,941.89,602.535z"/>
	<path fill="#18164B" d="M937.792,462.125c0.001,0.008,0.004,0.014,0.005,0.021C937.796,462.139,937.794,462.133,937.792,462.125
		L937.792,462.125z"/>
	<path fill="#18164B" d="M863.51,398.845c-0.748,0.464-1.461,0.977-2.144,1.532c0.714-0.509,1.427-1.019,2.141-1.527
		C863.509,398.849,863.51,398.847,863.51,398.845z"/>
	<path fill="#18164B" d="M956.648,392.871c0.877,0.453,1.753,0.902,2.629,1.354C958.414,393.749,957.709,392.965,956.648,392.871z"
		/>
	<path fill="#18164B" d="M939.857,604.491c-0.062,0.151-0.115,0.311-0.158,0.481c0.001,0,0.002,0,0.003,0
		C939.738,604.794,939.798,604.643,939.857,604.491z"/>
	<path fill="#18164B" d="M941.814,603.053c-0.553,0.038-0.979,0.216-1.313,0.5c0.34-0.271,0.776-0.437,1.313-0.49
		C941.814,603.059,941.814,603.056,941.814,603.053z"/>











	<path fill="#18164B" d="M2157.814,1061.066c-0.598,0.041-1.058,0.23-1.396,0.553c0.345-0.313,0.813-0.49,1.396-0.545
		C2157.814,1061.07,2157.814,1061.068,2157.814,1061.066z"/>
	<path fill="#18164B" d="M2260.389,1253.805c0.065,0.078,0.121,0.166,0.176,0.256
		C2260.511,1253.969,2260.452,1253.885,2260.389,1253.805z"/>
	<path fill="#18164B" d="M2169.257,1170.688c0.675,0.629,1.348,1.256,2.021,1.883
		C2170.639,1171.904,2169.966,1171.277,2169.257,1170.688z"/>
	<path fill="#18164B" d="M2136.308,1139.678c0.134,0.133,0.242,0.293,0.338,0.467
		C2136.551,1139.969,2136.439,1139.814,2136.308,1139.678z"/>
	<path fill="#18164B" d="M2160.439,1161.826c0.039,0.047,0.074,0.1,0.11,0.15
		C2160.515,1161.926,2160.479,1161.875,2160.439,1161.826z"/>
	<path fill="#18164B" d="M2109.766,1105.027c-0.023,0.004-0.043,0.014-0.066,0.018c0.023-0.004,0.043-0.012,0.066-0.016
		C2109.766,1105.029,2109.766,1105.029,2109.766,1105.027z"/>
	<path fill="#18164B" d="M2141.242,1108.568c-0.676,0.635-1.352,1.268-2.025,1.898
		C2139.958,1109.906,2140.633,1109.273,2141.242,1108.568z"/>
	<path fill="#18164B" d="M2165.243,1086.609c-0.669,0.623-1.336,1.244-2.003,1.867
		C2163.957,1087.906,2164.626,1087.287,2165.243,1086.609z"/>
	<path fill="#18164B" d="M2179.753,1041.008c-0.04,0.006-0.067,0.023-0.106,0.029c0.037-0.006,0.067-0.02,0.105-0.023
		C2179.752,1041.012,2179.752,1041.01,2179.753,1041.008z"/>
	<path fill="#18164B" d="M2248.805,1010.072v0.002c1.284-0.051,1.95-0.723,2.026-1.99c-0.001,0-0.002,0-0.003,0
		C2250.712,1009.311,2250.039,1009.975,2248.805,1010.072z"/>
	<path fill="#18164B" d="M2101.454,1112.74c-0.72,0.541-1.405,1.123-2.063,1.736c0.688-0.578,1.373-1.154,2.062-1.732
		C2101.453,1112.742,2101.454,1112.742,2101.454,1112.74z"/>
	<path fill="#18164B" d="M2129.447,1166.49c0.556,0.775,1.188,1.469,2.046,1.922c-0.002-0.006-0.007-0.012-0.009-0.021
		C2130.806,1167.758,2130.126,1167.123,2129.447,1166.49z"/>
	<path fill="#18164B" d="M2185.116,1217.975c0.204,0.074,0.428,0.127,0.681,0.146c0-0.002-0.001-0.004-0.001-0.006
		C2185.548,1218.092,2185.321,1218.045,2185.116,1217.975z"/>
	<path fill="#18164B" d="M2114.656,1153.744c0.313,0.209,0.701,0.332,1.186,0.348c0,0,0,0,0-0.002
		C2115.371,1154.061,2114.977,1153.945,2114.656,1153.744z"/>
	<path fill="#18164B" d="M1107.613,1204.373c0.303,0.922,1.072,1.488,1.684,2.178c-0.544-0.719-1.089-1.438-1.633-2.156
		C1107.646,1204.389,1107.631,1204.379,1107.613,1204.373z"/>
	<path fill="#18164B" d="M1117.075,1216.875c0.084-0.096,0.167-0.189,0.252-0.285l-0.266,0.268
		C1117.066,1216.863,1117.07,1216.869,1117.075,1216.875z"/>
	<path fill="#18164B" d="M1111.821,1210.131c0.008,0.229,0.051,0.43,0.109,0.619c-0.053-0.191-0.087-0.396-0.101-0.617
		C1111.827,1210.133,1111.824,1210.131,1111.821,1210.131z"/>




	<path fill="#18164B" d="M309.696,716.958c-0.13,26.326-0.655,52.654,0.28,78.976c45.057,0.07,90.114,0.148,135.168,0.189
		c1.313,0.002,2.625-0.357,3.938-0.551v-0.002c0.017-26.143,0.033-52.283,0.049-78.425l0,0c-0.652-0.133-1.304-0.381-1.955-0.381
		C401.351,716.816,355.524,716.887,309.696,716.958z"/>
	<path fill="#18164B" d="M449.077,795.59c-0.061,0.186-0.125,0.357-0.194,0.521C448.954,795.953,449.02,795.781,449.077,795.59z"/>
	<path fill="#18164B" d="M309.539,555.869c3.172,1.436,6.545,0.979,9.852,0.981c39.956,0.022,79.912,0.016,119.869,0.016
		c1.664,0,3.34-0.126,4.992,0.016c3.898,0.334,5.177-1.404,5.131-5.229c-0.159-13.315-0.057-26.637-0.056-39.955
		c0.001-9.322-0.02-18.646,0.009-27.97c0.008-2.69,0.193-5.4-2.741-6.902c-0.002,0-0.004-0.001-0.006-0.001
		c-1.965,0.21-3.929,0.602-5.894,0.603c-40.855,0.036-81.71,0.036-122.565,0c-1.964-0.002-3.927-0.396-5.891-0.609
		c-0.908,0.794-1.817,1.588-2.725,2.382l-0.001,0.001C310.225,504.755,310.162,530.312,309.539,555.869z"/>








</g>
</svg>
